<mxfile host="Electron" modified="2024-05-20T04:38:08.120Z" agent="Mozilla/5.0 (Windows NT 10.0; Win64; x64) AppleWebKit/537.36 (KHTML, like Gecko) draw.io/24.4.0 Chrome/120.0.6099.109 Electron/28.1.0 Safari/537.36" version="24.4.0" etag="Jia3RhtHn4Hg_a7gwMxj" type="device" pages="6">
  <diagram id="KuYQaHU5HzIFa5MSc5V8" name="타스크플래너시퀀스">
    <mxGraphModel dx="2901" dy="2366" grid="1" gridSize="10" guides="1" tooltips="1" connect="1" arrows="1" fold="1" page="1" pageScale="1" pageWidth="827" pageHeight="1169" math="0" shadow="0">
      <root>
        <mxCell id="0" />
        <mxCell id="1" parent="0" />
        <mxCell id="koHOs85ZeHyUhIIFZlP8-1" value="&lt;font style=&quot;font-size: 18px;&quot;&gt;CPathPlanner&lt;/font&gt;" style="swimlane;whiteSpace=wrap;html=1;" parent="1" vertex="1">
          <mxGeometry x="-68" width="300" height="590" as="geometry" />
        </mxCell>
        <mxCell id="koHOs85ZeHyUhIIFZlP8-2" value="THREAD TASK&lt;br&gt;&lt;br&gt;switch" style="rounded=0;whiteSpace=wrap;html=1;align=center;verticalAlign=top;labelBorderColor=none;fillColor=#dae8fc;strokeColor=#6c8ebf;" parent="koHOs85ZeHyUhIIFZlP8-1" vertex="1">
          <mxGeometry x="70" y="43" width="160" height="257" as="geometry" />
        </mxCell>
        <mxCell id="koHOs85ZeHyUhIIFZlP8-5" value="WAY_POINT&lt;br&gt;- way Point 사용" style="rounded=0;whiteSpace=wrap;html=1;" parent="koHOs85ZeHyUhIIFZlP8-1" vertex="1">
          <mxGeometry x="88" y="222" width="120" height="60" as="geometry" />
        </mxCell>
        <mxCell id="koHOs85ZeHyUhIIFZlP8-53" value="MOVE&lt;br&gt;- motion controller 직접 사용" style="rounded=0;whiteSpace=wrap;html=1;" parent="koHOs85ZeHyUhIIFZlP8-1" vertex="1">
          <mxGeometry x="88" y="150" width="120" height="60" as="geometry" />
        </mxCell>
        <mxCell id="koHOs85ZeHyUhIIFZlP8-3" value="NOTHING" style="rounded=0;whiteSpace=wrap;html=1;" parent="1" vertex="1">
          <mxGeometry x="20" y="78.92" width="120" height="60" as="geometry" />
        </mxCell>
        <mxCell id="koHOs85ZeHyUhIIFZlP8-4" style="edgeStyle=orthogonalEdgeStyle;rounded=0;orthogonalLoop=1;jettySize=auto;html=1;exitX=1;exitY=0.5;exitDx=0;exitDy=0;entryX=0;entryY=0.5;entryDx=0;entryDy=0;" parent="1" source="koHOs85ZeHyUhIIFZlP8-5" target="koHOs85ZeHyUhIIFZlP8-34" edge="1">
          <mxGeometry relative="1" as="geometry" />
        </mxCell>
        <mxCell id="koHOs85ZeHyUhIIFZlP8-6" style="edgeStyle=orthogonalEdgeStyle;rounded=0;orthogonalLoop=1;jettySize=auto;html=1;exitX=1;exitY=0.5;exitDx=0;exitDy=0;entryX=0.003;entryY=0.16;entryDx=0;entryDy=0;entryPerimeter=0;" parent="1" source="koHOs85ZeHyUhIIFZlP8-43" target="koHOs85ZeHyUhIIFZlP8-9" edge="1">
          <mxGeometry relative="1" as="geometry" />
        </mxCell>
        <mxCell id="koHOs85ZeHyUhIIFZlP8-7" value="Extends" style="endArrow=block;endSize=16;endFill=0;html=1;entryX=0.5;entryY=1;entryDx=0;entryDy=0;exitX=0.5;exitY=0;exitDx=0;exitDy=0;" parent="1" source="koHOs85ZeHyUhIIFZlP8-42" target="koHOs85ZeHyUhIIFZlP8-10" edge="1">
          <mxGeometry width="160" relative="1" as="geometry">
            <mxPoint x="970" y="860" as="sourcePoint" />
            <mxPoint x="1630" y="400" as="targetPoint" />
            <Array as="points" />
          </mxGeometry>
        </mxCell>
        <mxCell id="koHOs85ZeHyUhIIFZlP8-8" value="" style="group" parent="1" vertex="1" connectable="0">
          <mxGeometry x="1212" y="121" width="280" height="639" as="geometry" />
        </mxCell>
        <mxCell id="koHOs85ZeHyUhIIFZlP8-9" value="proc()" style="rounded=0;whiteSpace=wrap;html=1;verticalAlign=top;fillColor=#e1d5e7;strokeColor=#9673a6;" parent="koHOs85ZeHyUhIIFZlP8-8" vertex="1">
          <mxGeometry y="-55.22222222222222" width="280" height="694.2222222222223" as="geometry" />
        </mxCell>
        <mxCell id="koHOs85ZeHyUhIIFZlP8-10" value="&lt;font style=&quot;font-size: 18px;&quot;&gt;CAvoiding&lt;/font&gt;" style="swimlane;whiteSpace=wrap;html=1;verticalAlign=middle;" parent="1" vertex="1">
          <mxGeometry x="687" y="-569" width="590" height="480" as="geometry" />
        </mxCell>
        <mxCell id="koHOs85ZeHyUhIIFZlP8-11" value="avoidRun()" style="rounded=0;whiteSpace=wrap;html=1;fillColor=#ffe6cc;strokeColor=#d79b00;verticalAlign=top;" parent="koHOs85ZeHyUhIIFZlP8-10" vertex="1">
          <mxGeometry x="25" y="90" width="240" height="350" as="geometry" />
        </mxCell>
        <mxCell id="koHOs85ZeHyUhIIFZlP8-12" value="switch -&amp;nbsp;E_AVOID_STATUS&lt;br&gt;" style="rounded=0;whiteSpace=wrap;html=1;align=center;verticalAlign=top;fillColor=#dae8fc;strokeColor=#6c8ebf;" parent="koHOs85ZeHyUhIIFZlP8-10" vertex="1">
          <mxGeometry x="45" y="160" width="200" height="260" as="geometry" />
        </mxCell>
        <mxCell id="koHOs85ZeHyUhIIFZlP8-13" value="CHECKER&lt;br style=&quot;font-size: 10px;&quot;&gt;&lt;span style=&quot;font-size: 10px;&quot;&gt;&amp;nbsp;-장애물 판단 및 즉시 멈춤&lt;/span&gt;" style="rounded=0;whiteSpace=wrap;html=1;verticalAlign=top;align=center;fontSize=10;" parent="koHOs85ZeHyUhIIFZlP8-10" vertex="1">
          <mxGeometry x="55" y="200" width="180" height="40" as="geometry" />
        </mxCell>
        <mxCell id="koHOs85ZeHyUhIIFZlP8-14" value="MOTION_AVOID&lt;br style=&quot;font-size: 10px;&quot;&gt;&amp;nbsp;- 즉시 회피&lt;br style=&quot;font-size: 10px;&quot;&gt;&amp;nbsp;- 움직임 보장" style="rounded=0;whiteSpace=wrap;html=1;verticalAlign=top;align=center;fontSize=10;" parent="koHOs85ZeHyUhIIFZlP8-10" vertex="1">
          <mxGeometry x="55" y="250" width="180" height="50" as="geometry" />
        </mxCell>
        <mxCell id="koHOs85ZeHyUhIIFZlP8-15" value="MOTION_ESCAPE&lt;br style=&quot;font-size: 10px;&quot;&gt;- 회피 탈출&lt;br style=&quot;font-size: 10px;&quot;&gt;- 새로운 회피를 만나면 바뀜" style="rounded=0;whiteSpace=wrap;html=1;verticalAlign=top;fontSize=10;align=center;" parent="koHOs85ZeHyUhIIFZlP8-10" vertex="1">
          <mxGeometry x="55" y="307.5" width="180" height="55" as="geometry" />
        </mxCell>
        <mxCell id="koHOs85ZeHyUhIIFZlP8-16" value="COMPLETE&lt;br style=&quot;font-size: 10px;&quot;&gt;-회피완료" style="rounded=0;whiteSpace=wrap;html=1;verticalAlign=top;fontSize=10;align=center;" parent="koHOs85ZeHyUhIIFZlP8-10" vertex="1">
          <mxGeometry x="55" y="370" width="180" height="40" as="geometry" />
        </mxCell>
        <mxCell id="koHOs85ZeHyUhIIFZlP8-17" value="checkObstacle()" style="rounded=0;whiteSpace=wrap;html=1;fillColor=#ffe6cc;strokeColor=#d79b00;verticalAlign=top;" parent="koHOs85ZeHyUhIIFZlP8-10" vertex="1">
          <mxGeometry x="50" y="120" width="185" height="30" as="geometry" />
        </mxCell>
        <mxCell id="koHOs85ZeHyUhIIFZlP8-18" value="startAvoidMoving()&lt;br&gt;&lt;br&gt;avoid type 에 따라 첫 로봇동작을 실행" style="rounded=0;whiteSpace=wrap;html=1;fillColor=#ffe6cc;strokeColor=#d79b00;verticalAlign=top;" parent="koHOs85ZeHyUhIIFZlP8-10" vertex="1">
          <mxGeometry x="315" y="90" width="260" height="80" as="geometry" />
        </mxCell>
        <mxCell id="koHOs85ZeHyUhIIFZlP8-19" value="avoidStepProc()&lt;br&gt;&lt;br&gt;&lt;div style=&quot;background-color: rgb(255, 255, 255); font-family: Consolas, &amp;quot;Courier New&amp;quot;, monospace; line-height: 19px; font-size: 10px;&quot;&gt;&lt;div style=&quot;text-align: left;&quot;&gt;&lt;span style=&quot;color: rgb(175, 0, 219);&quot;&gt;case&lt;/span&gt; &lt;span style=&quot;color: rgb(38, 127, 153);&quot;&gt;E_AVOID_TYPE&lt;/span&gt;::&lt;span style=&quot;color: rgb(0, 112, 193);&quot;&gt;CLIFF&lt;/span&gt;:&lt;br&gt;&lt;/div&gt;&lt;div style=&quot;text-align: left;&quot;&gt;&lt;span style=&quot;color: #795e26;&quot;&gt;cliffAvoiding&lt;/span&gt;(&lt;span style=&quot;color: #001080;&quot;&gt;robotPose&lt;/span&gt;,&lt;span style=&quot;color: #001080;&quot;&gt;mask&lt;/span&gt;,&lt;span style=&quot;color: #001080;&quot;&gt;pObstacle&lt;/span&gt;);&lt;/div&gt;&lt;div style=&quot;text-align: left;&quot;&gt;&lt;span style=&quot;color: rgb(175, 0, 219);&quot;&gt;case&lt;/span&gt; &lt;span style=&quot;color: rgb(38, 127, 153);&quot;&gt;E_AVOID_TYPE&lt;/span&gt;::&lt;span style=&quot;color: rgb(0, 112, 193);&quot;&gt;BUMPER&lt;/span&gt;:&lt;br&gt;&lt;/div&gt;&lt;div style=&quot;text-align: left;&quot;&gt;&lt;span style=&quot;color: #795e26;&quot;&gt;bumperAvoiding&lt;/span&gt;(&lt;span style=&quot;color: #001080;&quot;&gt;robotPose&lt;/span&gt;,&lt;span style=&quot;color: #001080;&quot;&gt;mask&lt;/span&gt;,&lt;span style=&quot;color: #001080;&quot;&gt;pObstacle&lt;/span&gt;);&lt;/div&gt;&lt;div style=&quot;text-align: left;&quot;&gt;&lt;span style=&quot;color: rgb(175, 0, 219);&quot;&gt;case&lt;/span&gt; &lt;span style=&quot;color: rgb(38, 127, 153);&quot;&gt;E_AVOID_TYPE&lt;/span&gt;::&lt;span style=&quot;color: rgb(0, 112, 193);&quot;&gt;IR&lt;/span&gt;:&lt;br&gt;&lt;/div&gt;&lt;div style=&quot;text-align: left;&quot;&gt;&lt;span style=&quot;color: #795e26;&quot;&gt;frontAvoiding&lt;/span&gt;(&lt;span style=&quot;color: #001080;&quot;&gt;robotPose&lt;/span&gt;,&lt;span style=&quot;color: #001080;&quot;&gt;mask&lt;/span&gt;,&lt;span style=&quot;color: #001080;&quot;&gt;pObstacle&lt;/span&gt;);&lt;/div&gt;&lt;div style=&quot;text-align: left;&quot;&gt;&lt;span style=&quot;color: rgb(175, 0, 219);&quot;&gt;case&lt;/span&gt; &lt;span style=&quot;color: rgb(38, 127, 153);&quot;&gt;E_AVOID_TYPE&lt;/span&gt;::&lt;span style=&quot;color: rgb(0, 112, 193);&quot;&gt;WHEELTRAP&lt;/span&gt;:&lt;br&gt;&lt;/div&gt;&lt;div style=&quot;text-align: left;&quot;&gt;&lt;span style=&quot;color: #795e26;&quot;&gt;wheeltrapAvoiding&lt;/span&gt;(&lt;span style=&quot;color: #001080;&quot;&gt;robotPose&lt;/span&gt;,&lt;span style=&quot;color: #001080;&quot;&gt;mask&lt;/span&gt;,&lt;span style=&quot;color: #001080;&quot;&gt;pObstacle&lt;/span&gt;);&lt;/div&gt;&lt;div style=&quot;text-align: left;&quot;&gt;&lt;span style=&quot;color: rgb(175, 0, 219);&quot;&gt;case&lt;/span&gt; &lt;span style=&quot;color: rgb(38, 127, 153);&quot;&gt;E_AVOID_TYPE&lt;/span&gt;::&lt;span style=&quot;color: rgb(0, 112, 193);&quot;&gt;KNOLL&lt;/span&gt;:&lt;br&gt;&lt;/div&gt;&lt;div style=&quot;text-align: left;&quot;&gt;&lt;span style=&quot;color: #795e26;&quot;&gt;knollAvoiding&lt;/span&gt;(&lt;span style=&quot;color: #001080;&quot;&gt;robotPose&lt;/span&gt;,&lt;span style=&quot;color: #001080;&quot;&gt;mask&lt;/span&gt;,&lt;span style=&quot;color: #001080;&quot;&gt;pObstacle&lt;/span&gt;);&lt;/div&gt;&lt;/div&gt;" style="rounded=0;whiteSpace=wrap;html=1;fillColor=#ffe6cc;strokeColor=#d79b00;verticalAlign=top;" parent="koHOs85ZeHyUhIIFZlP8-10" vertex="1">
          <mxGeometry x="315" y="210" width="250" height="230" as="geometry" />
        </mxCell>
        <mxCell id="koHOs85ZeHyUhIIFZlP8-20" style="edgeStyle=orthogonalEdgeStyle;rounded=0;orthogonalLoop=1;jettySize=auto;html=1;exitX=1;exitY=0.5;exitDx=0;exitDy=0;entryX=0;entryY=0.5;entryDx=0;entryDy=0;" parent="koHOs85ZeHyUhIIFZlP8-10" source="koHOs85ZeHyUhIIFZlP8-14" target="koHOs85ZeHyUhIIFZlP8-18" edge="1">
          <mxGeometry relative="1" as="geometry" />
        </mxCell>
        <mxCell id="koHOs85ZeHyUhIIFZlP8-21" style="edgeStyle=orthogonalEdgeStyle;rounded=0;orthogonalLoop=1;jettySize=auto;html=1;exitX=1;exitY=0.5;exitDx=0;exitDy=0;" parent="koHOs85ZeHyUhIIFZlP8-10" source="koHOs85ZeHyUhIIFZlP8-15" target="koHOs85ZeHyUhIIFZlP8-19" edge="1">
          <mxGeometry relative="1" as="geometry" />
        </mxCell>
        <mxCell id="koHOs85ZeHyUhIIFZlP8-52" style="edgeStyle=orthogonalEdgeStyle;rounded=0;orthogonalLoop=1;jettySize=auto;html=1;exitX=0.5;exitY=1;exitDx=0;exitDy=0;entryX=0.75;entryY=0;entryDx=0;entryDy=0;" parent="1" source="koHOs85ZeHyUhIIFZlP8-23" target="koHOs85ZeHyUhIIFZlP8-9" edge="1">
          <mxGeometry relative="1" as="geometry" />
        </mxCell>
        <mxCell id="koHOs85ZeHyUhIIFZlP8-23" value="&lt;font style=&quot;font-size: 18px;&quot;&gt;CWallfollow&lt;/font&gt;" style="swimlane;whiteSpace=wrap;html=1;verticalAlign=middle;" parent="1" vertex="1">
          <mxGeometry x="1347" y="-210" width="150" height="120" as="geometry" />
        </mxCell>
        <mxCell id="koHOs85ZeHyUhIIFZlP8-24" value="checkAvoiding()" style="rounded=0;whiteSpace=wrap;html=1;fillColor=#ffe6cc;strokeColor=#d79b00;" parent="koHOs85ZeHyUhIIFZlP8-23" vertex="1">
          <mxGeometry x="15" y="41" width="120" height="40" as="geometry" />
        </mxCell>
        <mxCell id="koHOs85ZeHyUhIIFZlP8-25" value="Extends" style="endArrow=block;endSize=16;endFill=0;html=1;entryX=0.5;entryY=0;entryDx=0;entryDy=0;exitX=0.5;exitY=0;exitDx=0;exitDy=0;" parent="1" source="koHOs85ZeHyUhIIFZlP8-23" target="koHOs85ZeHyUhIIFZlP8-10" edge="1">
          <mxGeometry width="160" relative="1" as="geometry">
            <mxPoint x="1580" y="520" as="sourcePoint" />
            <mxPoint x="1672" y="520" as="targetPoint" />
            <Array as="points">
              <mxPoint x="1422" y="-610" />
              <mxPoint x="1200" y="-610" />
              <mxPoint x="980" y="-610" />
            </Array>
          </mxGeometry>
        </mxCell>
        <mxCell id="koHOs85ZeHyUhIIFZlP8-27" style="edgeStyle=orthogonalEdgeStyle;rounded=0;orthogonalLoop=1;jettySize=auto;html=1;exitX=0;exitY=0.5;exitDx=0;exitDy=0;entryX=0.5;entryY=0;entryDx=0;entryDy=0;" parent="1" source="koHOs85ZeHyUhIIFZlP8-24" edge="1">
          <mxGeometry relative="1" as="geometry">
            <Array as="points">
              <mxPoint x="1320" y="-149" />
              <mxPoint x="1320" y="-530" />
              <mxPoint x="750" y="-530" />
            </Array>
            <mxPoint x="1341" y="-169" as="sourcePoint" />
            <mxPoint x="750" y="-479" as="targetPoint" />
          </mxGeometry>
        </mxCell>
        <mxCell id="koHOs85ZeHyUhIIFZlP8-28" style="edgeStyle=orthogonalEdgeStyle;rounded=0;orthogonalLoop=1;jettySize=auto;html=1;exitX=0.5;exitY=1;exitDx=0;exitDy=0;entryX=0.25;entryY=0;entryDx=0;entryDy=0;" parent="1" source="koHOs85ZeHyUhIIFZlP8-11" target="koHOs85ZeHyUhIIFZlP8-9" edge="1">
          <mxGeometry relative="1" as="geometry">
            <Array as="points">
              <mxPoint x="832" y="-110" />
              <mxPoint x="1282" y="-110" />
            </Array>
          </mxGeometry>
        </mxCell>
        <mxCell id="koHOs85ZeHyUhIIFZlP8-29" value="switch - E_MOTION_TYPE&lt;br&gt;&lt;br&gt;" style="rounded=0;whiteSpace=wrap;html=1;align=center;verticalAlign=top;fillColor=#dae8fc;strokeColor=#6c8ebf;" parent="1" vertex="1">
          <mxGeometry x="1222" y="101" width="260" height="629" as="geometry" />
        </mxCell>
        <mxCell id="koHOs85ZeHyUhIIFZlP8-30" value="LINEAR&lt;br&gt;&lt;br&gt;&lt;div style=&quot;background-color: rgb(255, 255, 255); font-family: Consolas, &amp;quot;Courier New&amp;quot;, monospace; font-size: 14px; line-height: 19px;&quot;&gt;&lt;div style=&quot;text-align: left;&quot;&gt;&lt;font color=&quot;#0070c1&quot;&gt;E_TARGET_TYPE&lt;span style=&quot;&quot;&gt;::&lt;/span&gt;POSITION&lt;/font&gt;&lt;/div&gt;&lt;div style=&quot;text-align: left;&quot;&gt;&lt;span style=&quot;color: #795e26;&quot;&gt;&lt;span style=&quot;&quot;&gt;&lt;span style=&quot;white-space: pre;&quot;&gt;&amp;nbsp;&amp;nbsp;&amp;nbsp;&amp;nbsp;&lt;/span&gt;&lt;/span&gt;procLinearToPoint&lt;/span&gt;()&lt;/div&gt;&lt;div style=&quot;text-align: left;&quot;&gt;&lt;span style=&quot;color: rgb(38, 127, 153);&quot;&gt;E_TARGET_TYPE&lt;/span&gt;::&lt;span style=&quot;color: rgb(0, 112, 193);&quot;&gt;MOVEMENT&lt;/span&gt; &lt;span style=&quot;&quot;&gt;&lt;span style=&quot;white-space: pre;&quot;&gt;&amp;nbsp;&amp;nbsp;&amp;nbsp;&amp;nbsp;&lt;/span&gt;&lt;/span&gt;&lt;span style=&quot;color: rgb(121, 94, 38);&quot;&gt;procLinearToDistance&lt;/span&gt;()&lt;/div&gt;&lt;div style=&quot;text-align: left;&quot;&gt;&lt;span style=&quot;color: #267f99;&quot;&gt;E_TARGET_TYPE&lt;/span&gt;::&lt;span style=&quot;color: #0070c1;&quot;&gt;NO_TARGET&lt;/span&gt; &lt;span style=&quot;&quot;&gt;&lt;span style=&quot;white-space: pre;&quot;&gt;&amp;nbsp;&amp;nbsp;&amp;nbsp;&amp;nbsp;&lt;/span&gt;&lt;/span&gt;&lt;span style=&quot;color: #795e26;&quot;&gt;procLinearNoTarget&lt;/span&gt;()&lt;/div&gt;&lt;/div&gt;" style="rounded=0;whiteSpace=wrap;html=1;verticalAlign=top;" parent="1" vertex="1">
          <mxGeometry x="1232" y="145.08" width="240" height="164.92" as="geometry" />
        </mxCell>
        <mxCell id="koHOs85ZeHyUhIIFZlP8-31" value="&lt;div&gt;ROTATE&lt;/div&gt;&lt;div&gt;&lt;br&gt;&lt;/div&gt;&lt;div style=&quot;text-align: left;&quot;&gt;&lt;font color=&quot;#0070c1&quot;&gt;E_TARGET_TYPE::POSITION &lt;/font&gt;&lt;span style=&quot;white-space: pre;&quot;&gt;&#x9;&lt;/span&gt;rInfo.isTargetPoint?&lt;span style=&quot;white-space: pre;&quot;&gt;&#x9;&lt;/span&gt;&lt;/div&gt;&lt;div style=&quot;text-align: left;&quot;&gt;&lt;span style=&quot;white-space: pre;&quot;&gt;&#x9;&lt;/span&gt;&amp;nbsp; &amp;nbsp;procRotateToPoint()&lt;/div&gt;&lt;div style=&quot;text-align: left;&quot;&gt;&lt;span style=&quot;white-space: pre;&quot;&gt;&#x9;&lt;/span&gt;&amp;nbsp; &amp;nbsp;procRotateToPoseAngle()&lt;/div&gt;&lt;div style=&quot;text-align: left;&quot;&gt;&lt;br&gt;&lt;/div&gt;&lt;div style=&quot;text-align: left;&quot;&gt;&lt;font color=&quot;#0070c1&quot;&gt;E_TARGET_TYPE::MOVEMENT&lt;/font&gt;&lt;/div&gt;&lt;div style=&quot;text-align: left;&quot;&gt;&lt;span style=&quot;white-space: pre;&quot;&gt;&#x9;&lt;/span&gt;procRotateToMovementAngle()&lt;/div&gt;&lt;div style=&quot;text-align: left;&quot;&gt;&lt;br&gt;&lt;/div&gt;&lt;div style=&quot;text-align: left;&quot;&gt;&lt;font color=&quot;#0070c1&quot;&gt;E_TARGET_TYPE::NO_TARGET &lt;/font&gt;&lt;span style=&quot;white-space: pre;&quot;&gt;&#x9;&lt;/span&gt;setState(procRotateNoTarget()&lt;/div&gt;" style="rounded=0;whiteSpace=wrap;html=1;verticalAlign=top;" parent="1" vertex="1">
          <mxGeometry x="1232" y="320.00081632653064" width="240" height="198.36734693877548" as="geometry" />
        </mxCell>
        <mxCell id="koHOs85ZeHyUhIIFZlP8-32" value="&lt;div&gt;CURVE&lt;/div&gt;&lt;div style=&quot;text-align: left;&quot;&gt;&lt;br&gt;&lt;/div&gt;&lt;div style=&quot;&quot;&gt;&lt;div style=&quot;background-color: rgb(255, 255, 255); font-family: Consolas, &amp;quot;Courier New&amp;quot;, monospace; font-size: 14px; line-height: 19px;&quot;&gt;&lt;div style=&quot;text-align: left;&quot;&gt;&lt;font color=&quot;#0070c1&quot;&gt;E_TARGET_TYPE::POSITION&lt;/font&gt;&lt;/div&gt;&lt;div style=&quot;text-align: left;&quot;&gt;&lt;span style=&quot;color: #795e26;&quot;&gt;&lt;span style=&quot;white-space: pre;&quot;&gt;&#x9;&lt;/span&gt;procCurveToPoint&lt;/span&gt;()&lt;/div&gt;&lt;div style=&quot;text-align: left;&quot;&gt;&lt;span style=&quot;color: #267f99;&quot;&gt;E_TARGET_TYPE&lt;/span&gt;::&lt;span style=&quot;color: #0070c1;&quot;&gt;MOVEMENT&lt;/span&gt;&lt;/div&gt;&lt;div style=&quot;text-align: left;&quot;&gt;&lt;span style=&quot;color: #795e26;&quot;&gt;&lt;span style=&quot;white-space: pre;&quot;&gt;&#x9;&lt;/span&gt;&lt;/span&gt;&lt;span style=&quot;color: #795e26;&quot;&gt;procCurveToDistance&lt;/span&gt;()&lt;/div&gt;&lt;div style=&quot;text-align: left;&quot;&gt;&lt;span style=&quot;color: #267f99;&quot;&gt;E_TARGET_TYPE&lt;/span&gt;::&lt;span style=&quot;color: #0070c1;&quot;&gt;NO_TARGET&lt;/span&gt;&lt;/div&gt;&lt;div style=&quot;text-align: left;&quot;&gt;&lt;span style=&quot;white-space: pre;&quot;&gt;&#x9;&lt;/span&gt;&lt;span style=&quot;color: #795e26;&quot;&gt;procCurveNoTarget&lt;/span&gt;()&lt;/div&gt;&lt;/div&gt;&lt;/div&gt;" style="rounded=0;whiteSpace=wrap;html=1;verticalAlign=top;" parent="1" vertex="1">
          <mxGeometry x="1232" y="530" width="240" height="170" as="geometry" />
        </mxCell>
        <mxCell id="koHOs85ZeHyUhIIFZlP8-33" value="&lt;font style=&quot;font-size: 18px;&quot;&gt;CPathPlanner&lt;/font&gt;" style="swimlane;whiteSpace=wrap;html=1;" parent="1" vertex="1">
          <mxGeometry x="232" width="300" height="590" as="geometry" />
        </mxCell>
        <mxCell id="koHOs85ZeHyUhIIFZlP8-34" value="procWayPoint()" style="rounded=0;whiteSpace=wrap;html=1;fillColor=#ffe6cc;strokeColor=#d79b00;" parent="koHOs85ZeHyUhIIFZlP8-33" vertex="1">
          <mxGeometry x="30" y="222" width="220" height="60" as="geometry" />
        </mxCell>
        <mxCell id="koHOs85ZeHyUhIIFZlP8-35" value="&lt;font style=&quot;font-size: 18px;&quot;&gt;CGlobalPathPlanner&lt;/font&gt;" style="swimlane;whiteSpace=wrap;html=1;" parent="1" vertex="1">
          <mxGeometry x="532" width="300" height="590" as="geometry" />
        </mxCell>
        <mxCell id="koHOs85ZeHyUhIIFZlP8-36" value="proc()" style="rounded=0;whiteSpace=wrap;html=1;verticalAlign=top;fillColor=#e1d5e7;strokeColor=#9673a6;" parent="koHOs85ZeHyUhIIFZlP8-35" vertex="1">
          <mxGeometry x="27" y="43" width="250" height="450" as="geometry" />
        </mxCell>
        <mxCell id="koHOs85ZeHyUhIIFZlP8-37" value="switch - localstate&lt;br&gt;&lt;br&gt;&lt;br&gt;" style="rounded=0;whiteSpace=wrap;html=1;align=center;verticalAlign=top;labelBorderColor=none;fillColor=#dae8fc;strokeColor=#6c8ebf;" parent="koHOs85ZeHyUhIIFZlP8-35" vertex="1">
          <mxGeometry x="47" y="143" width="200" height="300" as="geometry" />
        </mxCell>
        <mxCell id="koHOs85ZeHyUhIIFZlP8-38" value="waypoint 종료 체커&lt;br&gt;&lt;div style=&quot;background-color: rgb(255, 255, 255); font-family: Consolas, &amp;quot;Courier New&amp;quot;, monospace; font-size: 14px; line-height: 19px;&quot;&gt;CGlobalPathPlanner&lt;/div&gt;&lt;div style=&quot;background-color: rgb(255, 255, 255); font-family: Consolas, &amp;quot;Courier New&amp;quot;, monospace; font-size: 14px; line-height: 19px;&quot;&gt;&amp;nbsp;의&amp;nbsp;E_STATE&lt;span style=&quot;&quot;&gt;::&lt;/span&gt;&lt;span style=&quot;color: rgb(0, 112, 193);&quot;&gt;COMPLETE&lt;/span&gt;&lt;/div&gt;" style="rounded=0;whiteSpace=wrap;html=1;align=center;verticalAlign=top;" parent="koHOs85ZeHyUhIIFZlP8-35" vertex="1">
          <mxGeometry x="47" y="73" width="200" height="60" as="geometry" />
        </mxCell>
        <mxCell id="koHOs85ZeHyUhIIFZlP8-39" value="NONE,&lt;br&gt;COMPLETE" style="rounded=0;whiteSpace=wrap;html=1;" parent="koHOs85ZeHyUhIIFZlP8-35" vertex="1">
          <mxGeometry x="97" y="263" width="120" height="60" as="geometry" />
        </mxCell>
        <mxCell id="koHOs85ZeHyUhIIFZlP8-40" value="FAIL" style="rounded=0;whiteSpace=wrap;html=1;" parent="koHOs85ZeHyUhIIFZlP8-35" vertex="1">
          <mxGeometry x="97" y="343" width="120" height="60" as="geometry" />
        </mxCell>
        <mxCell id="koHOs85ZeHyUhIIFZlP8-41" value="RUNNING" style="rounded=0;whiteSpace=wrap;html=1;" parent="koHOs85ZeHyUhIIFZlP8-35" vertex="1">
          <mxGeometry x="97" y="183" width="120" height="60" as="geometry" />
        </mxCell>
        <mxCell id="koHOs85ZeHyUhIIFZlP8-42" value="&lt;font style=&quot;font-size: 18px;&quot;&gt;CLocalPathPlanner&lt;/font&gt;" style="swimlane;whiteSpace=wrap;html=1;" parent="1" vertex="1">
          <mxGeometry x="832" width="300" height="590" as="geometry" />
        </mxCell>
        <mxCell id="koHOs85ZeHyUhIIFZlP8-43" value="proc()&lt;br&gt;&lt;br&gt;&lt;br&gt;&lt;br&gt;&lt;br&gt;&lt;br&gt;CMotionContrller 가 COMPLETE 이면&amp;nbsp;&lt;br&gt;CLocalPathPlanner COMPLETE" style="rounded=0;whiteSpace=wrap;html=1;verticalAlign=top;fillColor=#e1d5e7;strokeColor=#9673a6;" parent="koHOs85ZeHyUhIIFZlP8-42" vertex="1">
          <mxGeometry x="30" y="153" width="240" height="149" as="geometry" />
        </mxCell>
        <mxCell id="koHOs85ZeHyUhIIFZlP8-44" value="start()&lt;br&gt;&lt;br&gt;Motion Controller에 목표를 set 함." style="rounded=0;whiteSpace=wrap;html=1;fillColor=#ffe6cc;strokeColor=#d79b00;" parent="koHOs85ZeHyUhIIFZlP8-42" vertex="1">
          <mxGeometry x="33" y="360" width="237" height="60" as="geometry" />
        </mxCell>
        <mxCell id="koHOs85ZeHyUhIIFZlP8-45" value="checkAvoiding()" style="rounded=0;whiteSpace=wrap;html=1;fillColor=#ffe6cc;strokeColor=#d79b00;" parent="koHOs85ZeHyUhIIFZlP8-42" vertex="1">
          <mxGeometry x="90" y="182" width="120" height="40" as="geometry" />
        </mxCell>
        <mxCell id="koHOs85ZeHyUhIIFZlP8-46" value="&lt;font style=&quot;font-size: 18px;&quot;&gt;CMotionController&lt;/font&gt;" style="swimlane;whiteSpace=wrap;html=1;" parent="1" vertex="1">
          <mxGeometry x="1202" y="1" width="300" height="779" as="geometry" />
        </mxCell>
        <mxCell id="koHOs85ZeHyUhIIFZlP8-47" style="edgeStyle=orthogonalEdgeStyle;rounded=0;orthogonalLoop=1;jettySize=auto;html=1;exitX=1;exitY=0.5;exitDx=0;exitDy=0;entryX=0;entryY=0.5;entryDx=0;entryDy=0;" parent="1" source="koHOs85ZeHyUhIIFZlP8-34" target="koHOs85ZeHyUhIIFZlP8-36" edge="1">
          <mxGeometry relative="1" as="geometry" />
        </mxCell>
        <mxCell id="koHOs85ZeHyUhIIFZlP8-48" style="edgeStyle=orthogonalEdgeStyle;rounded=0;orthogonalLoop=1;jettySize=auto;html=1;exitX=1;exitY=0.75;exitDx=0;exitDy=0;entryX=0;entryY=0.5;entryDx=0;entryDy=0;" parent="1" source="koHOs85ZeHyUhIIFZlP8-41" target="koHOs85ZeHyUhIIFZlP8-43" edge="1">
          <mxGeometry relative="1" as="geometry">
            <mxPoint x="870" y="256" as="targetPoint" />
          </mxGeometry>
        </mxCell>
        <mxCell id="koHOs85ZeHyUhIIFZlP8-49" style="edgeStyle=orthogonalEdgeStyle;rounded=0;orthogonalLoop=1;jettySize=auto;html=1;exitX=1;exitY=0.5;exitDx=0;exitDy=0;entryX=0;entryY=0.5;entryDx=0;entryDy=0;" parent="1" source="koHOs85ZeHyUhIIFZlP8-39" target="koHOs85ZeHyUhIIFZlP8-44" edge="1">
          <mxGeometry relative="1" as="geometry">
            <mxPoint x="862" y="400" as="targetPoint" />
          </mxGeometry>
        </mxCell>
        <mxCell id="koHOs85ZeHyUhIIFZlP8-50" style="edgeStyle=orthogonalEdgeStyle;rounded=0;orthogonalLoop=1;jettySize=auto;html=1;exitX=0;exitY=0.5;exitDx=0;exitDy=0;entryX=0.25;entryY=1;entryDx=0;entryDy=0;" parent="1" source="koHOs85ZeHyUhIIFZlP8-45" target="koHOs85ZeHyUhIIFZlP8-11" edge="1">
          <mxGeometry relative="1" as="geometry">
            <Array as="points">
              <mxPoint x="880" y="202" />
              <mxPoint x="880" y="-40" />
              <mxPoint x="771" y="-40" />
            </Array>
          </mxGeometry>
        </mxCell>
        <mxCell id="koHOs85ZeHyUhIIFZlP8-51" value="이름 변경 예정&lt;br&gt;&amp;gt; NaviStack" style="shape=callout;whiteSpace=wrap;html=1;perimeter=calloutPerimeter;position2=1;" parent="1" vertex="1">
          <mxGeometry x="-200" y="-80" width="228" height="80" as="geometry" />
        </mxCell>
        <mxCell id="koHOs85ZeHyUhIIFZlP8-55" value="&lt;span style=&quot;font-size: 18px;&quot;&gt;CWayPoint&lt;/span&gt;" style="swimlane;whiteSpace=wrap;html=1;" parent="1" vertex="1">
          <mxGeometry x="250" y="-600" width="300" height="190" as="geometry" />
        </mxCell>
        <mxCell id="koHOs85ZeHyUhIIFZlP8-57" value="&lt;span style=&quot;font-size: 18px;&quot;&gt;CWayPointMng&lt;/span&gt;" style="swimlane;whiteSpace=wrap;html=1;" parent="1" vertex="1">
          <mxGeometry x="250" y="-370" width="300" height="190" as="geometry" />
        </mxCell>
        <mxCell id="koHOs85ZeHyUhIIFZlP8-60" value="" style="endArrow=none;html=1;rounded=0;entryX=0.5;entryY=1;entryDx=0;entryDy=0;exitX=0.5;exitY=0;exitDx=0;exitDy=0;" parent="1" source="koHOs85ZeHyUhIIFZlP8-57" target="koHOs85ZeHyUhIIFZlP8-55" edge="1">
          <mxGeometry width="50" height="50" relative="1" as="geometry">
            <mxPoint x="482" y="-89" as="sourcePoint" />
            <mxPoint x="532" y="-139" as="targetPoint" />
          </mxGeometry>
        </mxCell>
      </root>
    </mxGraphModel>
  </diagram>
  <diagram id="nii3pQuNLEy9XFa7WiCd" name="Avoid">
    <mxGraphModel dx="2074" dy="2366" grid="1" gridSize="10" guides="1" tooltips="1" connect="1" arrows="1" fold="1" page="1" pageScale="1" pageWidth="827" pageHeight="1169" math="0" shadow="0">
      <root>
        <mxCell id="0" />
        <mxCell id="1" parent="0" />
        <mxCell id="T_z1Lizrm0-lVkznvWnp-1" value="&lt;font style=&quot;font-size: 18px;&quot;&gt;CAvoiding&lt;/font&gt;" style="swimlane;whiteSpace=wrap;html=1;verticalAlign=middle;" parent="1" vertex="1">
          <mxGeometry x="90" y="-50" width="920" height="610" as="geometry" />
        </mxCell>
        <mxCell id="gmVjN91JRl6D8NJvaT1l-1" value="avoidRun()" style="rounded=0;whiteSpace=wrap;html=1;verticalAlign=top;fillColor=#e1d5e7;strokeColor=#9673a6;" parent="T_z1Lizrm0-lVkznvWnp-1" vertex="1">
          <mxGeometry x="10" y="50" width="260" height="370" as="geometry" />
        </mxCell>
        <mxCell id="T_z1Lizrm0-lVkznvWnp-3" value="switch -&amp;nbsp;E_AVOID_STATUS&lt;br&gt;" style="rounded=0;whiteSpace=wrap;html=1;align=center;verticalAlign=top;fillColor=#dae8fc;strokeColor=#6c8ebf;" parent="T_z1Lizrm0-lVkznvWnp-1" vertex="1">
          <mxGeometry x="35" y="80" width="215" height="300" as="geometry" />
        </mxCell>
        <mxCell id="T_z1Lizrm0-lVkznvWnp-4" value="E_AVOID_STATUS::CHECKER&lt;br style=&quot;font-size: 10px;&quot;&gt;&lt;span style=&quot;font-size: 10px;&quot;&gt;&amp;nbsp;-장애물 판단 및 즉시 멈춤&lt;/span&gt;" style="rounded=0;whiteSpace=wrap;html=1;verticalAlign=top;align=center;fontSize=10;" parent="T_z1Lizrm0-lVkznvWnp-1" vertex="1">
          <mxGeometry x="45" y="120" width="195" height="40" as="geometry" />
        </mxCell>
        <mxCell id="T_z1Lizrm0-lVkznvWnp-5" value="E_AVOID_STATUS::MOTION_AVOID&lt;br style=&quot;font-size: 10px;&quot;&gt;&amp;nbsp;- 즉시 회피&lt;br style=&quot;font-size: 10px;&quot;&gt;&amp;nbsp;- 움직임 보장" style="rounded=0;whiteSpace=wrap;html=1;verticalAlign=top;align=center;fontSize=10;" parent="T_z1Lizrm0-lVkznvWnp-1" vertex="1">
          <mxGeometry x="45" y="170" width="195" height="50" as="geometry" />
        </mxCell>
        <mxCell id="T_z1Lizrm0-lVkznvWnp-6" value="E_AVOID_STATUS::MOTION_ESCAPTE&lt;br style=&quot;font-size: 10px;&quot;&gt;- 회피 탈출&lt;br style=&quot;font-size: 10px;&quot;&gt;- 새로운 회피를 만나면 바뀜" style="rounded=0;whiteSpace=wrap;html=1;verticalAlign=top;fontSize=10;align=center;" parent="T_z1Lizrm0-lVkznvWnp-1" vertex="1">
          <mxGeometry x="45" y="227.5" width="195" height="55" as="geometry" />
        </mxCell>
        <mxCell id="T_z1Lizrm0-lVkznvWnp-7" value="E_AVOID_STATUS::COMPLETE&lt;br&gt;-회피완료" style="rounded=0;whiteSpace=wrap;html=1;verticalAlign=top;fontSize=10;align=center;" parent="T_z1Lizrm0-lVkznvWnp-1" vertex="1">
          <mxGeometry x="45" y="290" width="195" height="40" as="geometry" />
        </mxCell>
        <mxCell id="T_z1Lizrm0-lVkznvWnp-9" value="MotionAvoid()&lt;br&gt;&lt;br&gt;avoid type 에 따라 첫 로봇동작을 실행" style="rounded=0;whiteSpace=wrap;html=1;fillColor=#ffe6cc;strokeColor=#d79b00;verticalAlign=top;" parent="T_z1Lizrm0-lVkznvWnp-1" vertex="1">
          <mxGeometry x="360" y="165" width="250" height="60" as="geometry" />
        </mxCell>
        <mxCell id="U9BT3uqJ1vTNYGoRxgMi-3" style="edgeStyle=orthogonalEdgeStyle;rounded=0;orthogonalLoop=1;jettySize=auto;html=1;exitX=0.5;exitY=1;exitDx=0;exitDy=0;entryX=0.5;entryY=0;entryDx=0;entryDy=0;" parent="T_z1Lizrm0-lVkznvWnp-1" source="T_z1Lizrm0-lVkznvWnp-10" target="T_z1Lizrm0-lVkznvWnp-14" edge="1">
          <mxGeometry relative="1" as="geometry" />
        </mxCell>
        <mxCell id="T_z1Lizrm0-lVkznvWnp-10" value="MotionEscape()&lt;br&gt;&lt;br&gt;checkObstacle() 로 장애물 판단&lt;br&gt;상시 escapProc() RUN" style="rounded=0;whiteSpace=wrap;html=1;fillColor=#ffe6cc;strokeColor=#d79b00;verticalAlign=top;" parent="T_z1Lizrm0-lVkznvWnp-1" vertex="1">
          <mxGeometry x="360" y="240" width="250" height="72.5" as="geometry" />
        </mxCell>
        <mxCell id="T_z1Lizrm0-lVkznvWnp-11" style="edgeStyle=orthogonalEdgeStyle;rounded=0;orthogonalLoop=1;jettySize=auto;html=1;exitX=1;exitY=0.5;exitDx=0;exitDy=0;entryX=0;entryY=0.5;entryDx=0;entryDy=0;" parent="T_z1Lizrm0-lVkznvWnp-1" source="T_z1Lizrm0-lVkznvWnp-5" target="T_z1Lizrm0-lVkznvWnp-9" edge="1">
          <mxGeometry relative="1" as="geometry" />
        </mxCell>
        <mxCell id="T_z1Lizrm0-lVkznvWnp-12" style="edgeStyle=orthogonalEdgeStyle;rounded=0;orthogonalLoop=1;jettySize=auto;html=1;exitX=1;exitY=0.5;exitDx=0;exitDy=0;" parent="T_z1Lizrm0-lVkznvWnp-1" source="T_z1Lizrm0-lVkznvWnp-6" target="T_z1Lizrm0-lVkznvWnp-10" edge="1">
          <mxGeometry relative="1" as="geometry" />
        </mxCell>
        <mxCell id="T_z1Lizrm0-lVkznvWnp-13" value="checker()&lt;br&gt;&lt;br&gt;???" style="rounded=0;whiteSpace=wrap;html=1;fillColor=#ffe6cc;strokeColor=#d79b00;verticalAlign=top;" parent="T_z1Lizrm0-lVkznvWnp-1" vertex="1">
          <mxGeometry x="360" y="70" width="250" height="80" as="geometry" />
        </mxCell>
        <mxCell id="T_z1Lizrm0-lVkznvWnp-14" value="escapeProc()&lt;br&gt;" style="rounded=0;whiteSpace=wrap;html=1;fillColor=#ffe6cc;strokeColor=#d79b00;verticalAlign=top;" parent="T_z1Lizrm0-lVkznvWnp-1" vertex="1">
          <mxGeometry x="360" y="336" width="250" height="250" as="geometry" />
        </mxCell>
        <mxCell id="T_z1Lizrm0-lVkznvWnp-15" value="switch -&amp;nbsp;E_AVOID_STATUS&lt;br&gt;" style="rounded=0;whiteSpace=wrap;html=1;align=center;verticalAlign=top;fillColor=#dae8fc;strokeColor=#6c8ebf;" parent="T_z1Lizrm0-lVkznvWnp-1" vertex="1">
          <mxGeometry x="377.5" y="368.5" width="215" height="197.5" as="geometry" />
        </mxCell>
        <mxCell id="T_z1Lizrm0-lVkznvWnp-20" style="edgeStyle=orthogonalEdgeStyle;rounded=0;orthogonalLoop=1;jettySize=auto;html=1;exitX=1;exitY=0.5;exitDx=0;exitDy=0;entryX=0;entryY=0.5;entryDx=0;entryDy=0;" parent="T_z1Lizrm0-lVkznvWnp-1" source="T_z1Lizrm0-lVkznvWnp-16" target="T_z1Lizrm0-lVkznvWnp-19" edge="1">
          <mxGeometry relative="1" as="geometry">
            <mxPoint x="660" y="426" as="targetPoint" />
          </mxGeometry>
        </mxCell>
        <mxCell id="T_z1Lizrm0-lVkznvWnp-16" value="SET_WAYPOIN" style="rounded=0;whiteSpace=wrap;html=1;verticalAlign=top;fontSize=10;align=center;" parent="T_z1Lizrm0-lVkznvWnp-1" vertex="1">
          <mxGeometry x="387.5" y="406" width="195" height="40" as="geometry" />
        </mxCell>
        <mxCell id="T_z1Lizrm0-lVkznvWnp-17" value="RUN_WAYPOINT" style="rounded=0;whiteSpace=wrap;html=1;verticalAlign=top;fontSize=10;align=center;" parent="T_z1Lizrm0-lVkznvWnp-1" vertex="1">
          <mxGeometry x="387.5" y="456" width="195" height="40" as="geometry" />
        </mxCell>
        <mxCell id="T_z1Lizrm0-lVkznvWnp-18" value="COMPLETE" style="rounded=0;whiteSpace=wrap;html=1;verticalAlign=top;fontSize=10;align=center;" parent="T_z1Lizrm0-lVkznvWnp-1" vertex="1">
          <mxGeometry x="387.5" y="506" width="195" height="40" as="geometry" />
        </mxCell>
        <mxCell id="T_z1Lizrm0-lVkznvWnp-19" value="makeEscapeAction()" style="rounded=0;whiteSpace=wrap;html=1;fillColor=#ffe6cc;strokeColor=#d79b00;verticalAlign=top;" parent="T_z1Lizrm0-lVkznvWnp-1" vertex="1">
          <mxGeometry x="640" y="401" width="250" height="50" as="geometry" />
        </mxCell>
        <mxCell id="U9BT3uqJ1vTNYGoRxgMi-1" value="&lt;span style=&quot;font-size: 18px;&quot;&gt;CWayPointMng&lt;/span&gt;" style="swimlane;whiteSpace=wrap;html=1;" parent="1" vertex="1">
          <mxGeometry x="1020" y="326" width="300" height="190" as="geometry" />
        </mxCell>
        <mxCell id="U9BT3uqJ1vTNYGoRxgMi-2" style="edgeStyle=orthogonalEdgeStyle;rounded=0;orthogonalLoop=1;jettySize=auto;html=1;exitX=1;exitY=0.5;exitDx=0;exitDy=0;entryX=0;entryY=0.5;entryDx=0;entryDy=0;" parent="1" source="T_z1Lizrm0-lVkznvWnp-17" target="T_z1Lizrm0-lVkznvWnp-21" edge="1">
          <mxGeometry relative="1" as="geometry" />
        </mxCell>
        <mxCell id="T_z1Lizrm0-lVkznvWnp-21" value="runWaypoint()" style="rounded=0;whiteSpace=wrap;html=1;fillColor=#ffe6cc;strokeColor=#d79b00;verticalAlign=top;" parent="1" vertex="1">
          <mxGeometry x="1045" y="401" width="250" height="50" as="geometry" />
        </mxCell>
      </root>
    </mxGraphModel>
  </diagram>
  <diagram id="NhZl9fXio8ilXoWBx-yC" name="회피">
    <mxGraphModel dx="2074" dy="1197" grid="1" gridSize="10" guides="1" tooltips="1" connect="1" arrows="1" fold="1" page="1" pageScale="1" pageWidth="827" pageHeight="1169" math="0" shadow="0">
      <root>
        <mxCell id="0" />
        <mxCell id="1" parent="0" />
        <mxCell id="zDhWWi-fKA4qQtlnexx9-3" value="" style="group" parent="1" vertex="1" connectable="0">
          <mxGeometry x="260" y="320" width="80" height="60" as="geometry" />
        </mxCell>
        <mxCell id="zDhWWi-fKA4qQtlnexx9-1" value="" style="triangle;whiteSpace=wrap;html=1;rotation=90;" parent="zDhWWi-fKA4qQtlnexx9-3" vertex="1">
          <mxGeometry x="10" y="-10" width="60" height="80" as="geometry" />
        </mxCell>
        <mxCell id="zDhWWi-fKA4qQtlnexx9-2" value="" style="shape=flexArrow;endArrow=classic;html=1;rounded=0;endWidth=15;endSize=4.78;width=12;" parent="zDhWWi-fKA4qQtlnexx9-3" edge="1">
          <mxGeometry width="50" height="50" relative="1" as="geometry">
            <mxPoint x="39.5" y="30" as="sourcePoint" />
            <mxPoint x="39.5" as="targetPoint" />
          </mxGeometry>
        </mxCell>
        <mxCell id="zDhWWi-fKA4qQtlnexx9-4" value="" style="rounded=0;whiteSpace=wrap;html=1;fillColor=#eeeeee;strokeColor=#36393d;" parent="1" vertex="1">
          <mxGeometry x="200" y="300" width="200" height="20" as="geometry" />
        </mxCell>
        <mxCell id="zDhWWi-fKA4qQtlnexx9-6" value="" style="verticalLabelPosition=bottom;verticalAlign=top;html=1;shape=mxgraph.basic.8_point_star;align=center;fillColor=#e51400;fontColor=#ffffff;strokeColor=#B20000;" parent="1" vertex="1">
          <mxGeometry x="245" y="280" width="110" height="50" as="geometry" />
        </mxCell>
        <mxCell id="zDhWWi-fKA4qQtlnexx9-7" value="bumpping" style="whiteSpace=wrap;html=1;shape=mxgraph.basic.rectCallout;dx=30;dy=15;boundedLbl=1;" parent="1" vertex="1">
          <mxGeometry x="310" y="220" width="100" height="60" as="geometry" />
        </mxCell>
        <mxCell id="zDhWWi-fKA4qQtlnexx9-8" value="" style="group" parent="1" vertex="1" connectable="0">
          <mxGeometry x="580" y="320" width="80" height="60" as="geometry" />
        </mxCell>
        <mxCell id="zDhWWi-fKA4qQtlnexx9-9" value="" style="triangle;whiteSpace=wrap;html=1;rotation=90;" parent="zDhWWi-fKA4qQtlnexx9-8" vertex="1">
          <mxGeometry x="10" y="-10" width="60" height="80" as="geometry" />
        </mxCell>
        <mxCell id="zDhWWi-fKA4qQtlnexx9-10" value="" style="shape=flexArrow;endArrow=classic;html=1;rounded=0;endWidth=15;endSize=4.78;width=12;" parent="zDhWWi-fKA4qQtlnexx9-8" edge="1">
          <mxGeometry width="50" height="50" relative="1" as="geometry">
            <mxPoint x="39.5" y="30" as="sourcePoint" />
            <mxPoint x="39.5" as="targetPoint" />
          </mxGeometry>
        </mxCell>
        <mxCell id="zDhWWi-fKA4qQtlnexx9-11" value="" style="rounded=0;whiteSpace=wrap;html=1;fillColor=#eeeeee;strokeColor=#36393d;" parent="1" vertex="1">
          <mxGeometry x="520" y="300" width="200" height="20" as="geometry" />
        </mxCell>
        <mxCell id="zDhWWi-fKA4qQtlnexx9-13" value="stop" style="whiteSpace=wrap;html=1;shape=mxgraph.basic.rectCallout;dx=30;dy=15;boundedLbl=1;" parent="1" vertex="1">
          <mxGeometry x="590" y="220" width="100" height="60" as="geometry" />
        </mxCell>
        <mxCell id="zDhWWi-fKA4qQtlnexx9-14" value="" style="shape=singleArrow;whiteSpace=wrap;html=1;" parent="1" vertex="1">
          <mxGeometry x="440" y="290" width="40" height="60" as="geometry" />
        </mxCell>
        <mxCell id="zDhWWi-fKA4qQtlnexx9-15" value="" style="group" parent="1" vertex="1" connectable="0">
          <mxGeometry x="899" y="357" width="80" height="60" as="geometry" />
        </mxCell>
        <mxCell id="zDhWWi-fKA4qQtlnexx9-16" value="" style="triangle;whiteSpace=wrap;html=1;rotation=90;" parent="zDhWWi-fKA4qQtlnexx9-15" vertex="1">
          <mxGeometry x="10" y="-10" width="60" height="80" as="geometry" />
        </mxCell>
        <mxCell id="zDhWWi-fKA4qQtlnexx9-17" value="" style="shape=flexArrow;endArrow=classic;html=1;rounded=0;endWidth=15;endSize=4.78;width=12;" parent="zDhWWi-fKA4qQtlnexx9-15" edge="1">
          <mxGeometry width="50" height="50" relative="1" as="geometry">
            <mxPoint x="39.5" y="30" as="sourcePoint" />
            <mxPoint x="39.5" as="targetPoint" />
          </mxGeometry>
        </mxCell>
        <mxCell id="zDhWWi-fKA4qQtlnexx9-18" value="" style="rounded=0;whiteSpace=wrap;html=1;fillColor=#eeeeee;strokeColor=#36393d;" parent="1" vertex="1">
          <mxGeometry x="839" y="300" width="200" height="20" as="geometry" />
        </mxCell>
        <mxCell id="zDhWWi-fKA4qQtlnexx9-19" value="" style="shape=singleArrow;whiteSpace=wrap;html=1;" parent="1" vertex="1">
          <mxGeometry x="759" y="290" width="40" height="60" as="geometry" />
        </mxCell>
        <mxCell id="zDhWWi-fKA4qQtlnexx9-20" value="후진 : 5cm" style="whiteSpace=wrap;html=1;shape=mxgraph.basic.rectCallout;dx=30;dy=15;boundedLbl=1;" parent="1" vertex="1">
          <mxGeometry x="910" y="220" width="100" height="60" as="geometry" />
        </mxCell>
        <mxCell id="zDhWWi-fKA4qQtlnexx9-21" value="" style="endArrow=classic;html=1;rounded=0;exitX=0.5;exitY=1;exitDx=0;exitDy=0;" parent="1" source="zDhWWi-fKA4qQtlnexx9-18" edge="1">
          <mxGeometry width="50" height="50" relative="1" as="geometry">
            <mxPoint x="390" y="460" as="sourcePoint" />
            <mxPoint x="939" y="360" as="targetPoint" />
          </mxGeometry>
        </mxCell>
        <mxCell id="zDhWWi-fKA4qQtlnexx9-22" value="" style="group" parent="1" vertex="1" connectable="0">
          <mxGeometry x="1220" y="357" width="80" height="60" as="geometry" />
        </mxCell>
        <mxCell id="zDhWWi-fKA4qQtlnexx9-23" value="" style="triangle;whiteSpace=wrap;html=1;rotation=90;" parent="zDhWWi-fKA4qQtlnexx9-22" vertex="1">
          <mxGeometry x="10" y="-10" width="60" height="80" as="geometry" />
        </mxCell>
        <mxCell id="zDhWWi-fKA4qQtlnexx9-24" value="" style="shape=flexArrow;endArrow=classic;html=1;rounded=0;endWidth=15;endSize=4.78;width=12;" parent="zDhWWi-fKA4qQtlnexx9-22" edge="1">
          <mxGeometry width="50" height="50" relative="1" as="geometry">
            <mxPoint x="39.5" y="30" as="sourcePoint" />
            <mxPoint x="39.5" as="targetPoint" />
          </mxGeometry>
        </mxCell>
        <mxCell id="zDhWWi-fKA4qQtlnexx9-25" value="" style="rounded=0;whiteSpace=wrap;html=1;fillColor=#eeeeee;strokeColor=#36393d;" parent="1" vertex="1">
          <mxGeometry x="1160" y="300" width="200" height="20" as="geometry" />
        </mxCell>
        <mxCell id="zDhWWi-fKA4qQtlnexx9-26" value="틸팅 up" style="whiteSpace=wrap;html=1;shape=mxgraph.basic.rectCallout;dx=30;dy=15;boundedLbl=1;" parent="1" vertex="1">
          <mxGeometry x="1231" y="220" width="100" height="60" as="geometry" />
        </mxCell>
        <mxCell id="zDhWWi-fKA4qQtlnexx9-28" value="" style="group" parent="1" vertex="1" connectable="0">
          <mxGeometry x="1540" y="200" width="80" height="60" as="geometry" />
        </mxCell>
        <mxCell id="zDhWWi-fKA4qQtlnexx9-29" value="" style="triangle;whiteSpace=wrap;html=1;rotation=90;" parent="zDhWWi-fKA4qQtlnexx9-28" vertex="1">
          <mxGeometry x="10" y="-10" width="60" height="80" as="geometry" />
        </mxCell>
        <mxCell id="zDhWWi-fKA4qQtlnexx9-30" value="" style="shape=flexArrow;endArrow=classic;html=1;rounded=0;endWidth=15;endSize=4.78;width=12;" parent="zDhWWi-fKA4qQtlnexx9-28" edge="1">
          <mxGeometry width="50" height="50" relative="1" as="geometry">
            <mxPoint x="39.5" y="30" as="sourcePoint" />
            <mxPoint x="39.5" as="targetPoint" />
          </mxGeometry>
        </mxCell>
        <mxCell id="zDhWWi-fKA4qQtlnexx9-31" value="" style="rounded=0;whiteSpace=wrap;html=1;fillColor=#eeeeee;strokeColor=#36393d;" parent="1" vertex="1">
          <mxGeometry x="1480" y="300" width="200" height="20" as="geometry" />
        </mxCell>
        <mxCell id="zDhWWi-fKA4qQtlnexx9-32" value="전진 : 20cm" style="whiteSpace=wrap;html=1;shape=mxgraph.basic.rectCallout;dx=30;dy=15;boundedLbl=1;" parent="1" vertex="1">
          <mxGeometry x="1630" y="220" width="100" height="60" as="geometry" />
        </mxCell>
        <mxCell id="zDhWWi-fKA4qQtlnexx9-33" value="" style="endArrow=classic;html=1;rounded=0;entryX=1;entryY=0.5;entryDx=0;entryDy=0;" parent="1" target="zDhWWi-fKA4qQtlnexx9-29" edge="1">
          <mxGeometry width="50" height="50" relative="1" as="geometry">
            <mxPoint x="1580" y="360" as="sourcePoint" />
            <mxPoint x="949" y="370" as="targetPoint" />
          </mxGeometry>
        </mxCell>
        <mxCell id="zDhWWi-fKA4qQtlnexx9-34" value="" style="group" parent="1" vertex="1" connectable="0">
          <mxGeometry x="1860" y="200" width="80" height="60" as="geometry" />
        </mxCell>
        <mxCell id="zDhWWi-fKA4qQtlnexx9-35" value="" style="triangle;whiteSpace=wrap;html=1;rotation=90;" parent="zDhWWi-fKA4qQtlnexx9-34" vertex="1">
          <mxGeometry x="10" y="-10" width="60" height="80" as="geometry" />
        </mxCell>
        <mxCell id="zDhWWi-fKA4qQtlnexx9-36" value="" style="shape=flexArrow;endArrow=classic;html=1;rounded=0;endWidth=15;endSize=4.78;width=12;" parent="zDhWWi-fKA4qQtlnexx9-34" edge="1">
          <mxGeometry width="50" height="50" relative="1" as="geometry">
            <mxPoint x="39.5" y="30" as="sourcePoint" />
            <mxPoint x="39.5" as="targetPoint" />
          </mxGeometry>
        </mxCell>
        <mxCell id="zDhWWi-fKA4qQtlnexx9-37" value="" style="rounded=0;whiteSpace=wrap;html=1;fillColor=#eeeeee;strokeColor=#36393d;" parent="1" vertex="1">
          <mxGeometry x="1800" y="300" width="200" height="20" as="geometry" />
        </mxCell>
        <mxCell id="zDhWWi-fKA4qQtlnexx9-38" value="틸팅 down" style="whiteSpace=wrap;html=1;shape=mxgraph.basic.rectCallout;dx=30;dy=15;boundedLbl=1;" parent="1" vertex="1">
          <mxGeometry x="1968" y="220" width="100" height="60" as="geometry" />
        </mxCell>
        <mxCell id="zDhWWi-fKA4qQtlnexx9-42" value="Knoll - 문턱 등반 waypoint" style="swimlane;whiteSpace=wrap;html=1;" parent="1" vertex="1">
          <mxGeometry x="170" y="140" width="1930" height="480" as="geometry" />
        </mxCell>
        <mxCell id="zDhWWi-fKA4qQtlnexx9-39" value="" style="shape=singleArrow;whiteSpace=wrap;html=1;" parent="zDhWWi-fKA4qQtlnexx9-42" vertex="1">
          <mxGeometry x="910" y="150" width="40" height="60" as="geometry" />
        </mxCell>
        <mxCell id="zDhWWi-fKA4qQtlnexx9-40" value="" style="shape=singleArrow;whiteSpace=wrap;html=1;" parent="zDhWWi-fKA4qQtlnexx9-42" vertex="1">
          <mxGeometry x="1230" y="150" width="40" height="60" as="geometry" />
        </mxCell>
        <mxCell id="zDhWWi-fKA4qQtlnexx9-41" value="" style="shape=singleArrow;whiteSpace=wrap;html=1;" parent="zDhWWi-fKA4qQtlnexx9-42" vertex="1">
          <mxGeometry x="1550" y="150" width="40" height="60" as="geometry" />
        </mxCell>
        <mxCell id="zDhWWi-fKA4qQtlnexx9-44" value="" style="strokeWidth=2;html=1;shape=mxgraph.flowchart.annotation_2;align=left;labelPosition=right;pointerEvents=1;rotation=-90;" parent="zDhWWi-fKA4qQtlnexx9-42" vertex="1">
          <mxGeometry x="1025.5" y="-432.5" width="80" height="1515" as="geometry" />
        </mxCell>
        <mxCell id="zDhWWi-fKA4qQtlnexx9-45" value="장애물 검색 X" style="shape=ext;double=1;rounded=0;whiteSpace=wrap;html=1;" parent="zDhWWi-fKA4qQtlnexx9-42" vertex="1">
          <mxGeometry x="1005.5" y="364" width="120" height="80" as="geometry" />
        </mxCell>
      </root>
    </mxGraphModel>
  </diagram>
  <diagram id="ScKKJmaVs4GOtp_sqOUF" name="pathPlan">
    <mxGraphModel dx="2074" dy="1197" grid="1" gridSize="10" guides="1" tooltips="1" connect="1" arrows="1" fold="1" page="1" pageScale="1" pageWidth="827" pageHeight="1169" math="0" shadow="0">
      <root>
        <mxCell id="0" />
        <mxCell id="1" parent="0" />
        <mxCell id="TV52DWTnO9ZdNMOJs0Qz-1" value="&lt;div style=&quot;&quot;&gt;&lt;span style=&quot;background-color: initial;&quot;&gt;pathpalnProc()&lt;/span&gt;&lt;/div&gt;" style="rounded=0;whiteSpace=wrap;html=1;align=left;horizontal=1;verticalAlign=top;" parent="1" vertex="1">
          <mxGeometry x="131" y="240" width="270" height="190" as="geometry" />
        </mxCell>
        <mxCell id="TV52DWTnO9ZdNMOJs0Qz-14" style="edgeStyle=orthogonalEdgeStyle;rounded=0;orthogonalLoop=1;jettySize=auto;html=1;exitX=1;exitY=0.5;exitDx=0;exitDy=0;entryX=0;entryY=0.5;entryDx=0;entryDy=0;" parent="1" source="TV52DWTnO9ZdNMOJs0Qz-2" target="TV52DWTnO9ZdNMOJs0Qz-13" edge="1">
          <mxGeometry relative="1" as="geometry" />
        </mxCell>
        <mxCell id="TV52DWTnO9ZdNMOJs0Qz-2" value="procInit()" style="rounded=0;whiteSpace=wrap;html=1;" parent="1" vertex="1">
          <mxGeometry x="470" y="240" width="120" height="60" as="geometry" />
        </mxCell>
        <mxCell id="TV52DWTnO9ZdNMOJs0Qz-15" style="edgeStyle=orthogonalEdgeStyle;rounded=0;orthogonalLoop=1;jettySize=auto;html=1;exitX=1;exitY=0.5;exitDx=0;exitDy=0;entryX=0;entryY=0.5;entryDx=0;entryDy=0;" parent="1" source="TV52DWTnO9ZdNMOJs0Qz-3" target="TV52DWTnO9ZdNMOJs0Qz-13" edge="1">
          <mxGeometry relative="1" as="geometry" />
        </mxCell>
        <mxCell id="TV52DWTnO9ZdNMOJs0Qz-27" style="edgeStyle=orthogonalEdgeStyle;rounded=0;orthogonalLoop=1;jettySize=auto;html=1;exitX=1;exitY=0.75;exitDx=0;exitDy=0;entryX=-0.017;entryY=0.617;entryDx=0;entryDy=0;entryPerimeter=0;" parent="1" target="TV52DWTnO9ZdNMOJs0Qz-16" edge="1">
          <mxGeometry relative="1" as="geometry">
            <mxPoint x="590" y="354" as="sourcePoint" />
            <mxPoint x="700" y="368.5" as="targetPoint" />
          </mxGeometry>
        </mxCell>
        <mxCell id="TV52DWTnO9ZdNMOJs0Qz-3" value="runPathDrive()" style="rounded=0;whiteSpace=wrap;html=1;" parent="1" vertex="1">
          <mxGeometry x="470" y="308" width="120" height="60" as="geometry" />
        </mxCell>
        <mxCell id="TV52DWTnO9ZdNMOJs0Qz-4" value="initPathplan()" style="rounded=0;whiteSpace=wrap;html=1;" parent="1" vertex="1">
          <mxGeometry x="470" y="374.5" width="120" height="60" as="geometry" />
        </mxCell>
        <mxCell id="TV52DWTnO9ZdNMOJs0Qz-10" style="edgeStyle=orthogonalEdgeStyle;rounded=0;orthogonalLoop=1;jettySize=auto;html=1;exitX=1;exitY=0.5;exitDx=0;exitDy=0;" parent="1" source="TV52DWTnO9ZdNMOJs0Qz-6" target="TV52DWTnO9ZdNMOJs0Qz-2" edge="1">
          <mxGeometry relative="1" as="geometry" />
        </mxCell>
        <mxCell id="TV52DWTnO9ZdNMOJs0Qz-6" value="&lt;div style=&quot;background-color: rgb(255, 255, 255); font-family: Consolas, &amp;quot;Courier New&amp;quot;, monospace; font-size: 14px; line-height: 19px;&quot;&gt;E_PATHPLAN_STATE::&lt;span style=&quot;color: #0070c1;&quot;&gt;INIT&lt;/span&gt;:&lt;/div&gt;" style="rounded=0;whiteSpace=wrap;html=1;fillColor=#dae8fc;strokeColor=#6c8ebf;" parent="1" vertex="1">
          <mxGeometry x="141" y="292" width="250" height="25" as="geometry" />
        </mxCell>
        <mxCell id="TV52DWTnO9ZdNMOJs0Qz-11" style="edgeStyle=orthogonalEdgeStyle;rounded=0;orthogonalLoop=1;jettySize=auto;html=1;exitX=1;exitY=0.5;exitDx=0;exitDy=0;entryX=0;entryY=0.5;entryDx=0;entryDy=0;" parent="1" source="TV52DWTnO9ZdNMOJs0Qz-7" target="TV52DWTnO9ZdNMOJs0Qz-3" edge="1">
          <mxGeometry relative="1" as="geometry" />
        </mxCell>
        <mxCell id="TV52DWTnO9ZdNMOJs0Qz-7" value="&lt;div style=&quot;background-color: rgb(255, 255, 255); font-family: Consolas, &amp;quot;Courier New&amp;quot;, monospace; font-size: 14px; line-height: 19px;&quot;&gt;&lt;div style=&quot;line-height: 19px;&quot;&gt;E_PATHPLAN_STATE::&lt;span style=&quot;color: #0070c1;&quot;&gt;PATH_PLANNING&lt;/span&gt;&lt;/div&gt;&lt;/div&gt;" style="rounded=0;whiteSpace=wrap;html=1;fillColor=#dae8fc;strokeColor=#6c8ebf;" parent="1" vertex="1">
          <mxGeometry x="141" y="325" width="250" height="25" as="geometry" />
        </mxCell>
        <mxCell id="TV52DWTnO9ZdNMOJs0Qz-12" style="edgeStyle=orthogonalEdgeStyle;rounded=0;orthogonalLoop=1;jettySize=auto;html=1;exitX=1;exitY=0.5;exitDx=0;exitDy=0;entryX=0;entryY=0.5;entryDx=0;entryDy=0;" parent="1" source="TV52DWTnO9ZdNMOJs0Qz-8" target="TV52DWTnO9ZdNMOJs0Qz-4" edge="1">
          <mxGeometry relative="1" as="geometry" />
        </mxCell>
        <mxCell id="TV52DWTnO9ZdNMOJs0Qz-8" value="&lt;div style=&quot;background-color: rgb(255, 255, 255); font-family: Consolas, &amp;quot;Courier New&amp;quot;, monospace; font-size: 14px; line-height: 19px;&quot;&gt;&lt;div style=&quot;line-height: 19px;&quot;&gt;&lt;div style=&quot;line-height: 19px;&quot;&gt;E_PATHPLAN_STATE::&lt;span style=&quot;color: #0070c1;&quot;&gt;FAIL_PLANNING&lt;/span&gt;&lt;/div&gt;&lt;/div&gt;&lt;/div&gt;" style="rounded=0;whiteSpace=wrap;html=1;fillColor=#dae8fc;strokeColor=#6c8ebf;" parent="1" vertex="1">
          <mxGeometry x="141" y="360" width="250" height="25" as="geometry" />
        </mxCell>
        <mxCell id="TV52DWTnO9ZdNMOJs0Qz-9" value="&lt;div style=&quot;background-color: rgb(255, 255, 255); font-family: Consolas, &amp;quot;Courier New&amp;quot;, monospace; font-size: 14px; line-height: 19px;&quot;&gt;&lt;div style=&quot;line-height: 19px;&quot;&gt;&lt;div style=&quot;line-height: 19px;&quot;&gt;&lt;div style=&quot;line-height: 19px;&quot;&gt;E_PATHPLAN_STATE::&lt;span style=&quot;color: #0070c1;&quot;&gt;END&lt;/span&gt;&lt;/div&gt;&lt;/div&gt;&lt;/div&gt;&lt;/div&gt;" style="rounded=0;whiteSpace=wrap;html=1;fillColor=#dae8fc;strokeColor=#6c8ebf;" parent="1" vertex="1">
          <mxGeometry x="141" y="392" width="250" height="25" as="geometry" />
        </mxCell>
        <mxCell id="TV52DWTnO9ZdNMOJs0Qz-13" value="updatePathPlanning()&lt;br&gt;&lt;br&gt;edgePath 를 얻고 WayPoint 생성" style="rounded=0;whiteSpace=wrap;html=1;" parent="1" vertex="1">
          <mxGeometry x="690" y="240.5" width="190" height="60" as="geometry" />
        </mxCell>
        <mxCell id="TV52DWTnO9ZdNMOJs0Qz-16" value="pathPlanAvoidProc()" style="rounded=0;whiteSpace=wrap;html=1;" parent="1" vertex="1">
          <mxGeometry x="690" y="318" width="120" height="60" as="geometry" />
        </mxCell>
        <mxCell id="TV52DWTnO9ZdNMOJs0Qz-17" value="procPathDrvieStep()" style="rounded=0;whiteSpace=wrap;html=1;align=left;verticalAlign=top;" parent="1" vertex="1">
          <mxGeometry x="690" y="440" width="270" height="360" as="geometry" />
        </mxCell>
        <mxCell id="TV52DWTnO9ZdNMOJs0Qz-18" value="&lt;div style=&quot;background-color: rgb(255, 255, 255); font-family: Consolas, &amp;quot;Courier New&amp;quot;, monospace; font-size: 14px; line-height: 19px;&quot;&gt;&lt;div style=&quot;line-height: 19px;&quot;&gt;E_DRIVE_STEP::&lt;span style=&quot;color: #0070c1;&quot;&gt;INIT_DRVIE&lt;/span&gt;&lt;/div&gt;&lt;/div&gt;" style="rounded=0;whiteSpace=wrap;html=1;fillColor=#dae8fc;strokeColor=#6c8ebf;" parent="1" vertex="1">
          <mxGeometry x="700" y="487.5" width="250" height="25" as="geometry" />
        </mxCell>
        <mxCell id="TV52DWTnO9ZdNMOJs0Qz-19" value="&lt;div style=&quot;background-color: rgb(255, 255, 255); font-family: Consolas, &amp;quot;Courier New&amp;quot;, monospace; font-size: 14px; line-height: 19px;&quot;&gt;&lt;div style=&quot;line-height: 19px;&quot;&gt;&lt;div style=&quot;line-height: 19px;&quot;&gt;E_DRIVE_STEP::&lt;span style=&quot;color: #0070c1;&quot;&gt;SET_WAYPOINT&lt;/span&gt;&lt;/div&gt;&lt;/div&gt;&lt;/div&gt;" style="rounded=0;whiteSpace=wrap;html=1;fillColor=#dae8fc;strokeColor=#6c8ebf;" parent="1" vertex="1">
          <mxGeometry x="700" y="525.5" width="250" height="25" as="geometry" />
        </mxCell>
        <mxCell id="TV52DWTnO9ZdNMOJs0Qz-20" value="&lt;div style=&quot;background-color: rgb(255, 255, 255); font-family: Consolas, &amp;quot;Courier New&amp;quot;, monospace; font-size: 14px; line-height: 19px;&quot;&gt;&lt;div style=&quot;line-height: 19px;&quot;&gt;&lt;div style=&quot;line-height: 19px;&quot;&gt;&lt;div style=&quot;line-height: 19px;&quot;&gt;E_DRIVE_STEP::&lt;span style=&quot;color: #0070c1;&quot;&gt;RUN_WAYPOINT&lt;/span&gt;&lt;/div&gt;&lt;/div&gt;&lt;/div&gt;&lt;/div&gt;" style="rounded=0;whiteSpace=wrap;html=1;fillColor=#dae8fc;strokeColor=#6c8ebf;" parent="1" vertex="1">
          <mxGeometry x="700" y="565.5" width="250" height="25" as="geometry" />
        </mxCell>
        <mxCell id="TV52DWTnO9ZdNMOJs0Qz-21" value="&lt;div style=&quot;background-color: rgb(255, 255, 255); font-family: Consolas, &amp;quot;Courier New&amp;quot;, monospace; font-size: 14px; line-height: 19px;&quot;&gt;&lt;div style=&quot;line-height: 19px;&quot;&gt;&lt;div style=&quot;line-height: 19px;&quot;&gt;&lt;div style=&quot;line-height: 19px;&quot;&gt;&lt;div style=&quot;line-height: 19px;&quot;&gt;E_DRIVE_STEP::&lt;span style=&quot;color: #0070c1;&quot;&gt;COMPLETE&lt;/span&gt;&lt;/div&gt;&lt;/div&gt;&lt;/div&gt;&lt;/div&gt;&lt;/div&gt;" style="rounded=0;whiteSpace=wrap;html=1;fillColor=#dae8fc;strokeColor=#6c8ebf;" parent="1" vertex="1">
          <mxGeometry x="700" y="605.5" width="250" height="25" as="geometry" />
        </mxCell>
        <mxCell id="TV52DWTnO9ZdNMOJs0Qz-22" value="&lt;div style=&quot;background-color: rgb(255, 255, 255); font-family: Consolas, &amp;quot;Courier New&amp;quot;, monospace; font-size: 14px; line-height: 19px;&quot;&gt;&lt;div style=&quot;line-height: 19px;&quot;&gt;&lt;div style=&quot;line-height: 19px;&quot;&gt;&lt;div style=&quot;line-height: 19px;&quot;&gt;&lt;div style=&quot;line-height: 19px;&quot;&gt;&lt;div style=&quot;line-height: 19px;&quot;&gt;E_DRIVE_STEP::&lt;span style=&quot;color: #0070c1;&quot;&gt;TURNNING_WAIT&lt;/span&gt;&lt;/div&gt;&lt;/div&gt;&lt;/div&gt;&lt;/div&gt;&lt;/div&gt;&lt;/div&gt;" style="rounded=0;whiteSpace=wrap;html=1;fillColor=#dae8fc;strokeColor=#6c8ebf;" parent="1" vertex="1">
          <mxGeometry x="700" y="645.5" width="250" height="25" as="geometry" />
        </mxCell>
        <mxCell id="TV52DWTnO9ZdNMOJs0Qz-23" value="&lt;div style=&quot;background-color: rgb(255, 255, 255); font-family: Consolas, &amp;quot;Courier New&amp;quot;, monospace; font-size: 14px; line-height: 19px;&quot;&gt;&lt;div style=&quot;line-height: 19px;&quot;&gt;&lt;div style=&quot;line-height: 19px;&quot;&gt;&lt;div style=&quot;line-height: 19px;&quot;&gt;&lt;div style=&quot;line-height: 19px;&quot;&gt;&lt;div style=&quot;line-height: 19px;&quot;&gt;&lt;div style=&quot;line-height: 19px;&quot;&gt;E_DRIVE_STEP::&lt;span style=&quot;color: #0070c1;&quot;&gt;RUN_DRIVING&lt;/span&gt;&lt;/div&gt;&lt;/div&gt;&lt;/div&gt;&lt;/div&gt;&lt;/div&gt;&lt;/div&gt;&lt;/div&gt;" style="rounded=0;whiteSpace=wrap;html=1;fillColor=#dae8fc;strokeColor=#6c8ebf;" parent="1" vertex="1">
          <mxGeometry x="700" y="685.5" width="250" height="25" as="geometry" />
        </mxCell>
        <mxCell id="TV52DWTnO9ZdNMOJs0Qz-24" value="&lt;div style=&quot;background-color: rgb(255, 255, 255); font-family: Consolas, &amp;quot;Courier New&amp;quot;, monospace; font-size: 14px; line-height: 19px;&quot;&gt;&lt;div style=&quot;line-height: 19px;&quot;&gt;&lt;div style=&quot;line-height: 19px;&quot;&gt;&lt;div style=&quot;line-height: 19px;&quot;&gt;&lt;div style=&quot;line-height: 19px;&quot;&gt;&lt;div style=&quot;line-height: 19px;&quot;&gt;&lt;div style=&quot;line-height: 19px;&quot;&gt;&lt;div style=&quot;line-height: 19px;&quot;&gt;E_DRIVE_STEP::&lt;span style=&quot;color: #0070c1;&quot;&gt;CHECKWALL&lt;/span&gt;&lt;/div&gt;&lt;/div&gt;&lt;/div&gt;&lt;/div&gt;&lt;/div&gt;&lt;/div&gt;&lt;/div&gt;&lt;/div&gt;" style="rounded=0;whiteSpace=wrap;html=1;fillColor=#dae8fc;strokeColor=#6c8ebf;" parent="1" vertex="1">
          <mxGeometry x="700" y="725.5" width="250" height="25" as="geometry" />
        </mxCell>
        <mxCell id="TV52DWTnO9ZdNMOJs0Qz-25" value="&lt;div style=&quot;background-color: rgb(255, 255, 255); font-family: Consolas, &amp;quot;Courier New&amp;quot;, monospace; font-size: 14px; line-height: 19px;&quot;&gt;&lt;div style=&quot;line-height: 19px;&quot;&gt;&lt;div style=&quot;line-height: 19px;&quot;&gt;&lt;div style=&quot;line-height: 19px;&quot;&gt;&lt;div style=&quot;line-height: 19px;&quot;&gt;&lt;div style=&quot;line-height: 19px;&quot;&gt;&lt;div style=&quot;line-height: 19px;&quot;&gt;&lt;div style=&quot;line-height: 19px;&quot;&gt;&lt;div style=&quot;line-height: 19px;&quot;&gt;E_DRIVE_STEP::&lt;span style=&quot;color: #0070c1;&quot;&gt;CHECK_ARRIVE&lt;/span&gt;&lt;/div&gt;&lt;/div&gt;&lt;/div&gt;&lt;/div&gt;&lt;/div&gt;&lt;/div&gt;&lt;/div&gt;&lt;/div&gt;&lt;/div&gt;" style="rounded=0;whiteSpace=wrap;html=1;fillColor=#dae8fc;strokeColor=#6c8ebf;" parent="1" vertex="1">
          <mxGeometry x="700" y="765.5" width="250" height="25" as="geometry" />
        </mxCell>
        <mxCell id="TV52DWTnO9ZdNMOJs0Qz-26" style="edgeStyle=orthogonalEdgeStyle;rounded=0;orthogonalLoop=1;jettySize=auto;html=1;exitX=1;exitY=0.75;exitDx=0;exitDy=0;entryX=0;entryY=0.096;entryDx=0;entryDy=0;entryPerimeter=0;" parent="1" source="TV52DWTnO9ZdNMOJs0Qz-3" target="TV52DWTnO9ZdNMOJs0Qz-17" edge="1">
          <mxGeometry relative="1" as="geometry">
            <Array as="points">
              <mxPoint x="590" y="360" />
              <mxPoint x="640" y="360" />
              <mxPoint x="640" y="475" />
            </Array>
          </mxGeometry>
        </mxCell>
      </root>
    </mxGraphModel>
  </diagram>
  <diagram id="S2hMKoDT_ZmAh5XhFu8F" name="MotionPlanner">
    <mxGraphModel dx="2901" dy="2366" grid="1" gridSize="10" guides="1" tooltips="1" connect="1" arrows="1" fold="1" page="1" pageScale="1" pageWidth="827" pageHeight="1169" math="0" shadow="0">
      <root>
        <mxCell id="0" />
        <mxCell id="1" parent="0" />
        <mxCell id="Nqo3psnYewFx_JwqeypX-1" value="&lt;font style=&quot;font-size: 18px;&quot;&gt;CPathPlanner&lt;/font&gt;" style="swimlane;whiteSpace=wrap;html=1;" parent="1" vertex="1">
          <mxGeometry x="-68" width="300" height="590" as="geometry" />
        </mxCell>
        <mxCell id="Nqo3psnYewFx_JwqeypX-2" value="THREAD TASK&lt;br&gt;&lt;br&gt;switch" style="rounded=0;whiteSpace=wrap;html=1;align=center;verticalAlign=top;labelBorderColor=none;fillColor=#dae8fc;strokeColor=#6c8ebf;" parent="Nqo3psnYewFx_JwqeypX-1" vertex="1">
          <mxGeometry x="70" y="43" width="160" height="257" as="geometry" />
        </mxCell>
        <mxCell id="Nqo3psnYewFx_JwqeypX-3" value="WAY_POINT&lt;br&gt;- way Point 사용" style="rounded=0;whiteSpace=wrap;html=1;" parent="Nqo3psnYewFx_JwqeypX-1" vertex="1">
          <mxGeometry x="88" y="222" width="120" height="60" as="geometry" />
        </mxCell>
        <mxCell id="Nqo3psnYewFx_JwqeypX-4" value="MOVE&lt;br&gt;- motion controller 직접 사용" style="rounded=0;whiteSpace=wrap;html=1;" parent="Nqo3psnYewFx_JwqeypX-1" vertex="1">
          <mxGeometry x="88" y="150" width="120" height="60" as="geometry" />
        </mxCell>
        <mxCell id="Nqo3psnYewFx_JwqeypX-5" value="NOTHING" style="rounded=0;whiteSpace=wrap;html=1;" parent="1" vertex="1">
          <mxGeometry x="20" y="78.92" width="120" height="60" as="geometry" />
        </mxCell>
        <mxCell id="Nqo3psnYewFx_JwqeypX-6" style="edgeStyle=orthogonalEdgeStyle;rounded=0;orthogonalLoop=1;jettySize=auto;html=1;exitX=1;exitY=0.5;exitDx=0;exitDy=0;entryX=0;entryY=0.5;entryDx=0;entryDy=0;" parent="1" source="Nqo3psnYewFx_JwqeypX-3" edge="1">
          <mxGeometry relative="1" as="geometry">
            <mxPoint x="262.00000000000045" y="252" as="targetPoint" />
          </mxGeometry>
        </mxCell>
        <mxCell id="Nqo3psnYewFx_JwqeypX-7" style="edgeStyle=orthogonalEdgeStyle;rounded=0;orthogonalLoop=1;jettySize=auto;html=1;exitX=1;exitY=0.5;exitDx=0;exitDy=0;entryX=0.003;entryY=0.16;entryDx=0;entryDy=0;entryPerimeter=0;" parent="1" source="Nqo3psnYewFx_JwqeypX-43" target="Nqo3psnYewFx_JwqeypX-10" edge="1">
          <mxGeometry relative="1" as="geometry" />
        </mxCell>
        <mxCell id="Nqo3psnYewFx_JwqeypX-8" value="Extends" style="endArrow=block;endSize=16;endFill=0;html=1;entryX=0.5;entryY=1;entryDx=0;entryDy=0;exitX=0.532;exitY=-0.009;exitDx=0;exitDy=0;exitPerimeter=0;" parent="1" source="Nqo3psnYewFx_JwqeypX-67" target="Nqo3psnYewFx_JwqeypX-11" edge="1">
          <mxGeometry width="160" relative="1" as="geometry">
            <mxPoint x="970" y="860" as="sourcePoint" />
            <mxPoint x="1630" y="400" as="targetPoint" />
            <Array as="points" />
          </mxGeometry>
        </mxCell>
        <mxCell id="Nqo3psnYewFx_JwqeypX-9" value="" style="group" parent="1" vertex="1" connectable="0">
          <mxGeometry x="1212" y="121" width="280" height="639" as="geometry" />
        </mxCell>
        <mxCell id="Nqo3psnYewFx_JwqeypX-10" value="proc()" style="rounded=0;whiteSpace=wrap;html=1;verticalAlign=top;fillColor=#e1d5e7;strokeColor=#9673a6;" parent="Nqo3psnYewFx_JwqeypX-9" vertex="1">
          <mxGeometry y="-55.22222222222222" width="280" height="694.2222222222223" as="geometry" />
        </mxCell>
        <mxCell id="Nqo3psnYewFx_JwqeypX-11" value="&lt;font style=&quot;font-size: 18px;&quot;&gt;CAvoiding&lt;/font&gt;" style="swimlane;whiteSpace=wrap;html=1;verticalAlign=middle;" parent="1" vertex="1">
          <mxGeometry x="670" y="-1019" width="590" height="480" as="geometry" />
        </mxCell>
        <mxCell id="Nqo3psnYewFx_JwqeypX-12" value="avoidRun()" style="rounded=0;whiteSpace=wrap;html=1;fillColor=#ffe6cc;strokeColor=#d79b00;verticalAlign=top;" parent="Nqo3psnYewFx_JwqeypX-11" vertex="1">
          <mxGeometry x="25" y="90" width="240" height="350" as="geometry" />
        </mxCell>
        <mxCell id="Nqo3psnYewFx_JwqeypX-13" value="switch -&amp;nbsp;E_AVOID_STATUS&lt;br&gt;" style="rounded=0;whiteSpace=wrap;html=1;align=center;verticalAlign=top;fillColor=#dae8fc;strokeColor=#6c8ebf;" parent="Nqo3psnYewFx_JwqeypX-11" vertex="1">
          <mxGeometry x="45" y="160" width="200" height="260" as="geometry" />
        </mxCell>
        <mxCell id="Nqo3psnYewFx_JwqeypX-14" value="CHECKER&lt;br style=&quot;font-size: 10px;&quot;&gt;&lt;span style=&quot;font-size: 10px;&quot;&gt;&amp;nbsp;-장애물 판단 및 즉시 멈춤&lt;/span&gt;" style="rounded=0;whiteSpace=wrap;html=1;verticalAlign=top;align=center;fontSize=10;" parent="Nqo3psnYewFx_JwqeypX-11" vertex="1">
          <mxGeometry x="55" y="200" width="180" height="40" as="geometry" />
        </mxCell>
        <mxCell id="Nqo3psnYewFx_JwqeypX-15" value="MOTION_AVOID&lt;br style=&quot;font-size: 10px;&quot;&gt;&amp;nbsp;- 즉시 회피&lt;br style=&quot;font-size: 10px;&quot;&gt;&amp;nbsp;- 움직임 보장" style="rounded=0;whiteSpace=wrap;html=1;verticalAlign=top;align=center;fontSize=10;" parent="Nqo3psnYewFx_JwqeypX-11" vertex="1">
          <mxGeometry x="55" y="250" width="180" height="50" as="geometry" />
        </mxCell>
        <mxCell id="Nqo3psnYewFx_JwqeypX-16" value="MOTION_ESCAPE&lt;br style=&quot;font-size: 10px;&quot;&gt;- 회피 탈출&lt;br style=&quot;font-size: 10px;&quot;&gt;- 새로운 회피를 만나면 바뀜" style="rounded=0;whiteSpace=wrap;html=1;verticalAlign=top;fontSize=10;align=center;" parent="Nqo3psnYewFx_JwqeypX-11" vertex="1">
          <mxGeometry x="55" y="307.5" width="180" height="55" as="geometry" />
        </mxCell>
        <mxCell id="Nqo3psnYewFx_JwqeypX-17" value="COMPLETE&lt;br style=&quot;font-size: 10px;&quot;&gt;-회피완료" style="rounded=0;whiteSpace=wrap;html=1;verticalAlign=top;fontSize=10;align=center;" parent="Nqo3psnYewFx_JwqeypX-11" vertex="1">
          <mxGeometry x="55" y="370" width="180" height="40" as="geometry" />
        </mxCell>
        <mxCell id="Nqo3psnYewFx_JwqeypX-18" value="checkObstacle()" style="rounded=0;whiteSpace=wrap;html=1;fillColor=#ffe6cc;strokeColor=#d79b00;verticalAlign=top;" parent="Nqo3psnYewFx_JwqeypX-11" vertex="1">
          <mxGeometry x="50" y="120" width="185" height="30" as="geometry" />
        </mxCell>
        <mxCell id="Nqo3psnYewFx_JwqeypX-19" value="startAvoidMoving()&lt;br&gt;&lt;br&gt;avoid type 에 따라 첫 로봇동작을 실행" style="rounded=0;whiteSpace=wrap;html=1;fillColor=#ffe6cc;strokeColor=#d79b00;verticalAlign=top;" parent="Nqo3psnYewFx_JwqeypX-11" vertex="1">
          <mxGeometry x="315" y="90" width="260" height="80" as="geometry" />
        </mxCell>
        <mxCell id="Nqo3psnYewFx_JwqeypX-20" value="avoidStepProc()&lt;br&gt;&lt;br&gt;&lt;div style=&quot;background-color: rgb(255, 255, 255); font-family: Consolas, &amp;quot;Courier New&amp;quot;, monospace; line-height: 19px; font-size: 10px;&quot;&gt;&lt;div style=&quot;text-align: left;&quot;&gt;&lt;span style=&quot;color: rgb(175, 0, 219);&quot;&gt;case&lt;/span&gt; &lt;span style=&quot;color: rgb(38, 127, 153);&quot;&gt;E_AVOID_TYPE&lt;/span&gt;::&lt;span style=&quot;color: rgb(0, 112, 193);&quot;&gt;CLIFF&lt;/span&gt;:&lt;br&gt;&lt;/div&gt;&lt;div style=&quot;text-align: left;&quot;&gt;&lt;span style=&quot;color: #795e26;&quot;&gt;cliffAvoiding&lt;/span&gt;(&lt;span style=&quot;color: #001080;&quot;&gt;robotPose&lt;/span&gt;,&lt;span style=&quot;color: #001080;&quot;&gt;mask&lt;/span&gt;,&lt;span style=&quot;color: #001080;&quot;&gt;pObstacle&lt;/span&gt;);&lt;/div&gt;&lt;div style=&quot;text-align: left;&quot;&gt;&lt;span style=&quot;color: rgb(175, 0, 219);&quot;&gt;case&lt;/span&gt; &lt;span style=&quot;color: rgb(38, 127, 153);&quot;&gt;E_AVOID_TYPE&lt;/span&gt;::&lt;span style=&quot;color: rgb(0, 112, 193);&quot;&gt;BUMPER&lt;/span&gt;:&lt;br&gt;&lt;/div&gt;&lt;div style=&quot;text-align: left;&quot;&gt;&lt;span style=&quot;color: #795e26;&quot;&gt;bumperAvoiding&lt;/span&gt;(&lt;span style=&quot;color: #001080;&quot;&gt;robotPose&lt;/span&gt;,&lt;span style=&quot;color: #001080;&quot;&gt;mask&lt;/span&gt;,&lt;span style=&quot;color: #001080;&quot;&gt;pObstacle&lt;/span&gt;);&lt;/div&gt;&lt;div style=&quot;text-align: left;&quot;&gt;&lt;span style=&quot;color: rgb(175, 0, 219);&quot;&gt;case&lt;/span&gt; &lt;span style=&quot;color: rgb(38, 127, 153);&quot;&gt;E_AVOID_TYPE&lt;/span&gt;::&lt;span style=&quot;color: rgb(0, 112, 193);&quot;&gt;IR&lt;/span&gt;:&lt;br&gt;&lt;/div&gt;&lt;div style=&quot;text-align: left;&quot;&gt;&lt;span style=&quot;color: #795e26;&quot;&gt;frontAvoiding&lt;/span&gt;(&lt;span style=&quot;color: #001080;&quot;&gt;robotPose&lt;/span&gt;,&lt;span style=&quot;color: #001080;&quot;&gt;mask&lt;/span&gt;,&lt;span style=&quot;color: #001080;&quot;&gt;pObstacle&lt;/span&gt;);&lt;/div&gt;&lt;div style=&quot;text-align: left;&quot;&gt;&lt;span style=&quot;color: rgb(175, 0, 219);&quot;&gt;case&lt;/span&gt; &lt;span style=&quot;color: rgb(38, 127, 153);&quot;&gt;E_AVOID_TYPE&lt;/span&gt;::&lt;span style=&quot;color: rgb(0, 112, 193);&quot;&gt;WHEELTRAP&lt;/span&gt;:&lt;br&gt;&lt;/div&gt;&lt;div style=&quot;text-align: left;&quot;&gt;&lt;span style=&quot;color: #795e26;&quot;&gt;wheeltrapAvoiding&lt;/span&gt;(&lt;span style=&quot;color: #001080;&quot;&gt;robotPose&lt;/span&gt;,&lt;span style=&quot;color: #001080;&quot;&gt;mask&lt;/span&gt;,&lt;span style=&quot;color: #001080;&quot;&gt;pObstacle&lt;/span&gt;);&lt;/div&gt;&lt;div style=&quot;text-align: left;&quot;&gt;&lt;span style=&quot;color: rgb(175, 0, 219);&quot;&gt;case&lt;/span&gt; &lt;span style=&quot;color: rgb(38, 127, 153);&quot;&gt;E_AVOID_TYPE&lt;/span&gt;::&lt;span style=&quot;color: rgb(0, 112, 193);&quot;&gt;KNOLL&lt;/span&gt;:&lt;br&gt;&lt;/div&gt;&lt;div style=&quot;text-align: left;&quot;&gt;&lt;span style=&quot;color: #795e26;&quot;&gt;knollAvoiding&lt;/span&gt;(&lt;span style=&quot;color: #001080;&quot;&gt;robotPose&lt;/span&gt;,&lt;span style=&quot;color: #001080;&quot;&gt;mask&lt;/span&gt;,&lt;span style=&quot;color: #001080;&quot;&gt;pObstacle&lt;/span&gt;);&lt;/div&gt;&lt;/div&gt;" style="rounded=0;whiteSpace=wrap;html=1;fillColor=#ffe6cc;strokeColor=#d79b00;verticalAlign=top;" parent="Nqo3psnYewFx_JwqeypX-11" vertex="1">
          <mxGeometry x="315" y="210" width="250" height="230" as="geometry" />
        </mxCell>
        <mxCell id="Nqo3psnYewFx_JwqeypX-21" style="edgeStyle=orthogonalEdgeStyle;rounded=0;orthogonalLoop=1;jettySize=auto;html=1;exitX=1;exitY=0.5;exitDx=0;exitDy=0;entryX=0;entryY=0.5;entryDx=0;entryDy=0;" parent="Nqo3psnYewFx_JwqeypX-11" source="Nqo3psnYewFx_JwqeypX-15" target="Nqo3psnYewFx_JwqeypX-19" edge="1">
          <mxGeometry relative="1" as="geometry" />
        </mxCell>
        <mxCell id="Nqo3psnYewFx_JwqeypX-22" style="edgeStyle=orthogonalEdgeStyle;rounded=0;orthogonalLoop=1;jettySize=auto;html=1;exitX=1;exitY=0.5;exitDx=0;exitDy=0;" parent="Nqo3psnYewFx_JwqeypX-11" source="Nqo3psnYewFx_JwqeypX-16" target="Nqo3psnYewFx_JwqeypX-20" edge="1">
          <mxGeometry relative="1" as="geometry" />
        </mxCell>
        <mxCell id="Nqo3psnYewFx_JwqeypX-24" value="&lt;font style=&quot;font-size: 18px;&quot;&gt;CWallfollow&lt;/font&gt;" style="swimlane;whiteSpace=wrap;html=1;verticalAlign=middle;" parent="1" vertex="1">
          <mxGeometry x="1800" y="-209" width="150" height="120" as="geometry" />
        </mxCell>
        <mxCell id="Nqo3psnYewFx_JwqeypX-25" value="checkAvoiding()" style="rounded=0;whiteSpace=wrap;html=1;fillColor=#ffe6cc;strokeColor=#d79b00;" parent="Nqo3psnYewFx_JwqeypX-24" vertex="1">
          <mxGeometry x="15" y="41" width="120" height="40" as="geometry" />
        </mxCell>
        <mxCell id="Nqo3psnYewFx_JwqeypX-29" value="switch - E_MOTION_TYPE&lt;br&gt;&lt;br&gt;" style="rounded=0;whiteSpace=wrap;html=1;align=center;verticalAlign=top;fillColor=#dae8fc;strokeColor=#6c8ebf;" parent="1" vertex="1">
          <mxGeometry x="1222" y="101" width="260" height="629" as="geometry" />
        </mxCell>
        <mxCell id="Nqo3psnYewFx_JwqeypX-30" value="LINEAR&lt;br&gt;&lt;br&gt;&lt;div style=&quot;background-color: rgb(255, 255, 255); font-family: Consolas, &amp;quot;Courier New&amp;quot;, monospace; font-size: 14px; line-height: 19px;&quot;&gt;&lt;div style=&quot;text-align: left;&quot;&gt;&lt;font color=&quot;#0070c1&quot;&gt;E_TARGET_TYPE&lt;span style=&quot;&quot;&gt;::&lt;/span&gt;POSITION&lt;/font&gt;&lt;/div&gt;&lt;div style=&quot;text-align: left;&quot;&gt;&lt;span style=&quot;color: #795e26;&quot;&gt;&lt;span style=&quot;&quot;&gt;&lt;span style=&quot;white-space: pre;&quot;&gt;&amp;nbsp;&amp;nbsp;&amp;nbsp;&amp;nbsp;&lt;/span&gt;&lt;/span&gt;procLinearToPoint&lt;/span&gt;()&lt;/div&gt;&lt;div style=&quot;text-align: left;&quot;&gt;&lt;span style=&quot;color: rgb(38, 127, 153);&quot;&gt;E_TARGET_TYPE&lt;/span&gt;::&lt;span style=&quot;color: rgb(0, 112, 193);&quot;&gt;MOVEMENT&lt;/span&gt; &lt;span style=&quot;&quot;&gt;&lt;span style=&quot;white-space: pre;&quot;&gt;&amp;nbsp;&amp;nbsp;&amp;nbsp;&amp;nbsp;&lt;/span&gt;&lt;/span&gt;&lt;span style=&quot;color: rgb(121, 94, 38);&quot;&gt;procLinearToDistance&lt;/span&gt;()&lt;/div&gt;&lt;div style=&quot;text-align: left;&quot;&gt;&lt;span style=&quot;color: #267f99;&quot;&gt;E_TARGET_TYPE&lt;/span&gt;::&lt;span style=&quot;color: #0070c1;&quot;&gt;NO_TARGET&lt;/span&gt; &lt;span style=&quot;&quot;&gt;&lt;span style=&quot;white-space: pre;&quot;&gt;&amp;nbsp;&amp;nbsp;&amp;nbsp;&amp;nbsp;&lt;/span&gt;&lt;/span&gt;&lt;span style=&quot;color: #795e26;&quot;&gt;procLinearNoTarget&lt;/span&gt;()&lt;/div&gt;&lt;/div&gt;" style="rounded=0;whiteSpace=wrap;html=1;verticalAlign=top;" parent="1" vertex="1">
          <mxGeometry x="1232" y="145.08" width="240" height="164.92" as="geometry" />
        </mxCell>
        <mxCell id="Nqo3psnYewFx_JwqeypX-31" value="&lt;div&gt;ROTATE&lt;/div&gt;&lt;div&gt;&lt;br&gt;&lt;/div&gt;&lt;div style=&quot;text-align: left;&quot;&gt;&lt;font color=&quot;#0070c1&quot;&gt;E_TARGET_TYPE::POSITION &lt;/font&gt;&lt;span style=&quot;white-space: pre;&quot;&gt;&#x9;&lt;/span&gt;rInfo.isTargetPoint?&lt;span style=&quot;white-space: pre;&quot;&gt;&#x9;&lt;/span&gt;&lt;/div&gt;&lt;div style=&quot;text-align: left;&quot;&gt;&lt;span style=&quot;white-space: pre;&quot;&gt;&#x9;&lt;/span&gt;&amp;nbsp; &amp;nbsp;procRotateToPoint()&lt;/div&gt;&lt;div style=&quot;text-align: left;&quot;&gt;&lt;span style=&quot;white-space: pre;&quot;&gt;&#x9;&lt;/span&gt;&amp;nbsp; &amp;nbsp;procRotateToPoseAngle()&lt;/div&gt;&lt;div style=&quot;text-align: left;&quot;&gt;&lt;br&gt;&lt;/div&gt;&lt;div style=&quot;text-align: left;&quot;&gt;&lt;font color=&quot;#0070c1&quot;&gt;E_TARGET_TYPE::MOVEMENT&lt;/font&gt;&lt;/div&gt;&lt;div style=&quot;text-align: left;&quot;&gt;&lt;span style=&quot;white-space: pre;&quot;&gt;&#x9;&lt;/span&gt;procRotateToMovementAngle()&lt;/div&gt;&lt;div style=&quot;text-align: left;&quot;&gt;&lt;br&gt;&lt;/div&gt;&lt;div style=&quot;text-align: left;&quot;&gt;&lt;font color=&quot;#0070c1&quot;&gt;E_TARGET_TYPE::NO_TARGET &lt;/font&gt;&lt;span style=&quot;white-space: pre;&quot;&gt;&#x9;&lt;/span&gt;setState(procRotateNoTarget()&lt;/div&gt;" style="rounded=0;whiteSpace=wrap;html=1;verticalAlign=top;" parent="1" vertex="1">
          <mxGeometry x="1232" y="320.00081632653064" width="240" height="198.36734693877548" as="geometry" />
        </mxCell>
        <mxCell id="Nqo3psnYewFx_JwqeypX-32" value="&lt;div&gt;CURVE&lt;/div&gt;&lt;div style=&quot;text-align: left;&quot;&gt;&lt;br&gt;&lt;/div&gt;&lt;div style=&quot;&quot;&gt;&lt;div style=&quot;background-color: rgb(255, 255, 255); font-family: Consolas, &amp;quot;Courier New&amp;quot;, monospace; font-size: 14px; line-height: 19px;&quot;&gt;&lt;div style=&quot;text-align: left;&quot;&gt;&lt;font color=&quot;#0070c1&quot;&gt;E_TARGET_TYPE::POSITION&lt;/font&gt;&lt;/div&gt;&lt;div style=&quot;text-align: left;&quot;&gt;&lt;span style=&quot;color: #795e26;&quot;&gt;&lt;span style=&quot;white-space: pre;&quot;&gt;&#x9;&lt;/span&gt;procCurveToPoint&lt;/span&gt;()&lt;/div&gt;&lt;div style=&quot;text-align: left;&quot;&gt;&lt;span style=&quot;color: #267f99;&quot;&gt;E_TARGET_TYPE&lt;/span&gt;::&lt;span style=&quot;color: #0070c1;&quot;&gt;MOVEMENT&lt;/span&gt;&lt;/div&gt;&lt;div style=&quot;text-align: left;&quot;&gt;&lt;span style=&quot;color: #795e26;&quot;&gt;&lt;span style=&quot;white-space: pre;&quot;&gt;&#x9;&lt;/span&gt;&lt;/span&gt;&lt;span style=&quot;color: #795e26;&quot;&gt;procCurveToDistance&lt;/span&gt;()&lt;/div&gt;&lt;div style=&quot;text-align: left;&quot;&gt;&lt;span style=&quot;color: #267f99;&quot;&gt;E_TARGET_TYPE&lt;/span&gt;::&lt;span style=&quot;color: #0070c1;&quot;&gt;NO_TARGET&lt;/span&gt;&lt;/div&gt;&lt;div style=&quot;text-align: left;&quot;&gt;&lt;span style=&quot;white-space: pre;&quot;&gt;&#x9;&lt;/span&gt;&lt;span style=&quot;color: #795e26;&quot;&gt;procCurveNoTarget&lt;/span&gt;()&lt;/div&gt;&lt;/div&gt;&lt;/div&gt;" style="rounded=0;whiteSpace=wrap;html=1;verticalAlign=top;" parent="1" vertex="1">
          <mxGeometry x="1232" y="530" width="240" height="170" as="geometry" />
        </mxCell>
        <mxCell id="Nqo3psnYewFx_JwqeypX-35" value="&lt;font style=&quot;font-size: 18px;&quot;&gt;CGlobalPathPlanner&lt;/font&gt;" style="swimlane;whiteSpace=wrap;html=1;" parent="1" vertex="1">
          <mxGeometry x="532" width="300" height="590" as="geometry" />
        </mxCell>
        <mxCell id="Nqo3psnYewFx_JwqeypX-36" value="proc()" style="rounded=0;whiteSpace=wrap;html=1;verticalAlign=top;fillColor=#e1d5e7;strokeColor=#9673a6;" parent="Nqo3psnYewFx_JwqeypX-35" vertex="1">
          <mxGeometry x="27" y="43" width="250" height="450" as="geometry" />
        </mxCell>
        <mxCell id="Nqo3psnYewFx_JwqeypX-37" value="switch - localstate&lt;br&gt;&lt;br&gt;&lt;br&gt;" style="rounded=0;whiteSpace=wrap;html=1;align=center;verticalAlign=top;labelBorderColor=none;fillColor=#dae8fc;strokeColor=#6c8ebf;" parent="Nqo3psnYewFx_JwqeypX-35" vertex="1">
          <mxGeometry x="47" y="143" width="200" height="300" as="geometry" />
        </mxCell>
        <mxCell id="Nqo3psnYewFx_JwqeypX-38" value="waypoint 종료 체커&lt;br&gt;&lt;div style=&quot;background-color: rgb(255, 255, 255); font-family: Consolas, &amp;quot;Courier New&amp;quot;, monospace; font-size: 14px; line-height: 19px;&quot;&gt;CGlobalPathPlanner&lt;/div&gt;&lt;div style=&quot;background-color: rgb(255, 255, 255); font-family: Consolas, &amp;quot;Courier New&amp;quot;, monospace; font-size: 14px; line-height: 19px;&quot;&gt;&amp;nbsp;의&amp;nbsp;E_STATE&lt;span style=&quot;&quot;&gt;::&lt;/span&gt;&lt;span style=&quot;color: rgb(0, 112, 193);&quot;&gt;COMPLETE&lt;/span&gt;&lt;/div&gt;" style="rounded=0;whiteSpace=wrap;html=1;align=center;verticalAlign=top;" parent="Nqo3psnYewFx_JwqeypX-35" vertex="1">
          <mxGeometry x="47" y="73" width="200" height="60" as="geometry" />
        </mxCell>
        <mxCell id="Nqo3psnYewFx_JwqeypX-39" value="NONE,&lt;br&gt;COMPLETE" style="rounded=0;whiteSpace=wrap;html=1;" parent="Nqo3psnYewFx_JwqeypX-35" vertex="1">
          <mxGeometry x="97" y="263" width="120" height="60" as="geometry" />
        </mxCell>
        <mxCell id="Nqo3psnYewFx_JwqeypX-40" value="FAIL" style="rounded=0;whiteSpace=wrap;html=1;" parent="Nqo3psnYewFx_JwqeypX-35" vertex="1">
          <mxGeometry x="97" y="343" width="120" height="60" as="geometry" />
        </mxCell>
        <mxCell id="Nqo3psnYewFx_JwqeypX-41" value="RUNNING" style="rounded=0;whiteSpace=wrap;html=1;" parent="Nqo3psnYewFx_JwqeypX-35" vertex="1">
          <mxGeometry x="97" y="183" width="120" height="60" as="geometry" />
        </mxCell>
        <mxCell id="Nqo3psnYewFx_JwqeypX-42" value="&lt;font style=&quot;font-size: 18px;&quot;&gt;CLocalPathPlanner&lt;/font&gt;" style="swimlane;whiteSpace=wrap;html=1;" parent="1" vertex="1">
          <mxGeometry x="832" width="300" height="590" as="geometry" />
        </mxCell>
        <mxCell id="Nqo3psnYewFx_JwqeypX-43" value="proc()&lt;br&gt;&lt;br&gt;&lt;br&gt;&lt;br&gt;&lt;br&gt;&lt;br&gt;CMotionContrller 가 COMPLETE 이면&amp;nbsp;&lt;br&gt;CLocalPathPlanner COMPLETE" style="rounded=0;whiteSpace=wrap;html=1;verticalAlign=top;fillColor=#e1d5e7;strokeColor=#9673a6;" parent="Nqo3psnYewFx_JwqeypX-42" vertex="1">
          <mxGeometry x="30" y="153" width="240" height="149" as="geometry" />
        </mxCell>
        <mxCell id="Nqo3psnYewFx_JwqeypX-44" value="start()&lt;br&gt;&lt;br&gt;Motion Controller에 목표를 set 함." style="rounded=0;whiteSpace=wrap;html=1;fillColor=#ffe6cc;strokeColor=#d79b00;" parent="Nqo3psnYewFx_JwqeypX-42" vertex="1">
          <mxGeometry x="33" y="360" width="237" height="60" as="geometry" />
        </mxCell>
        <mxCell id="Nqo3psnYewFx_JwqeypX-45" value="checkAvoiding()" style="rounded=0;whiteSpace=wrap;html=1;fillColor=#ffe6cc;strokeColor=#d79b00;" parent="Nqo3psnYewFx_JwqeypX-42" vertex="1">
          <mxGeometry x="90" y="182" width="120" height="40" as="geometry" />
        </mxCell>
        <mxCell id="Nqo3psnYewFx_JwqeypX-46" value="&lt;font style=&quot;font-size: 18px;&quot;&gt;CMotionController&lt;/font&gt;" style="swimlane;whiteSpace=wrap;html=1;" parent="1" vertex="1">
          <mxGeometry x="1202" y="1" width="300" height="779" as="geometry" />
        </mxCell>
        <mxCell id="Nqo3psnYewFx_JwqeypX-48" style="edgeStyle=orthogonalEdgeStyle;rounded=0;orthogonalLoop=1;jettySize=auto;html=1;exitX=1;exitY=0.75;exitDx=0;exitDy=0;entryX=0;entryY=0.5;entryDx=0;entryDy=0;" parent="1" source="Nqo3psnYewFx_JwqeypX-41" target="Nqo3psnYewFx_JwqeypX-43" edge="1">
          <mxGeometry relative="1" as="geometry">
            <mxPoint x="870" y="256" as="targetPoint" />
          </mxGeometry>
        </mxCell>
        <mxCell id="Nqo3psnYewFx_JwqeypX-49" style="edgeStyle=orthogonalEdgeStyle;rounded=0;orthogonalLoop=1;jettySize=auto;html=1;exitX=1;exitY=0.5;exitDx=0;exitDy=0;entryX=0;entryY=0.5;entryDx=0;entryDy=0;" parent="1" source="Nqo3psnYewFx_JwqeypX-39" target="Nqo3psnYewFx_JwqeypX-44" edge="1">
          <mxGeometry relative="1" as="geometry">
            <mxPoint x="862" y="400" as="targetPoint" />
          </mxGeometry>
        </mxCell>
        <mxCell id="Nqo3psnYewFx_JwqeypX-52" value="&lt;span style=&quot;font-size: 18px;&quot;&gt;CWayPoint&lt;/span&gt;" style="swimlane;whiteSpace=wrap;html=1;" parent="1" vertex="1">
          <mxGeometry x="-390" y="-539" width="300" height="190" as="geometry" />
        </mxCell>
        <mxCell id="Nqo3psnYewFx_JwqeypX-53" value="&lt;span style=&quot;font-size: 18px;&quot;&gt;CWayPointMng&lt;/span&gt;" style="swimlane;whiteSpace=wrap;html=1;" parent="1" vertex="1">
          <mxGeometry x="-390" y="-309" width="300" height="190" as="geometry" />
        </mxCell>
        <mxCell id="Nqo3psnYewFx_JwqeypX-54" value="" style="endArrow=none;html=1;rounded=0;entryX=0.5;entryY=1;entryDx=0;entryDy=0;exitX=0.5;exitY=0;exitDx=0;exitDy=0;" parent="1" source="Nqo3psnYewFx_JwqeypX-53" target="Nqo3psnYewFx_JwqeypX-52" edge="1">
          <mxGeometry width="50" height="50" relative="1" as="geometry">
            <mxPoint x="-158" y="-28" as="sourcePoint" />
            <mxPoint x="-108" y="-78" as="targetPoint" />
          </mxGeometry>
        </mxCell>
        <mxCell id="Nqo3psnYewFx_JwqeypX-55" value="&lt;font style=&quot;font-size: 18px;&quot;&gt;CObstacleChecker&lt;/font&gt;" style="swimlane;whiteSpace=wrap;html=1;verticalAlign=middle;" parent="1" vertex="1">
          <mxGeometry x="20" y="-684" width="270" height="480" as="geometry" />
        </mxCell>
        <mxCell id="Nqo3psnYewFx_JwqeypX-67" value="&lt;font style=&quot;font-size: 18px;&quot;&gt;CAvoidingMotionPlanner&lt;br&gt;&lt;/font&gt;" style="swimlane;whiteSpace=wrap;html=1;verticalAlign=middle;" parent="1" vertex="1">
          <mxGeometry x="782" y="-480" width="350" height="339" as="geometry" />
        </mxCell>
        <mxCell id="yTanDvC6mHBfbxtir6zZ-1" value="CPath plann" style="shape=callout;whiteSpace=wrap;html=1;perimeter=calloutPerimeter;" parent="1" vertex="1">
          <mxGeometry x="550" y="-89" width="120" height="80" as="geometry" />
        </mxCell>
        <mxCell id="yTanDvC6mHBfbxtir6zZ-2" value="Waypoing&lt;br&gt;avoid" style="shape=callout;whiteSpace=wrap;html=1;perimeter=calloutPerimeter;" parent="1" vertex="1">
          <mxGeometry x="905" y="-100" width="120" height="80" as="geometry" />
        </mxCell>
      </root>
    </mxGraphModel>
  </diagram>
  <diagram id="7GWft_xy4MUDvIKnhMXk" name="구형제어기">
    <mxGraphModel dx="2901" dy="1197" grid="1" gridSize="10" guides="1" tooltips="1" connect="1" arrows="1" fold="1" page="1" pageScale="1" pageWidth="827" pageHeight="1169" math="0" shadow="0">
      <root>
        <mxCell id="0" />
        <mxCell id="1" parent="0" />
        <mxCell id="lpdRN_G7rFgol36uBTiA-1" value="&lt;div style=&quot;background-color: rgb(255, 255, 255); font-family: Consolas, &amp;quot;Courier New&amp;quot;, monospace; font-size: 14px; line-height: 19px;&quot;&gt;&lt;div&gt;&lt;span style=&quot;color: #0070c1;&quot;&gt;E_WHEEL_CONTROL::wheelcontrol_stop&lt;/span&gt;&lt;/div&gt;&lt;div&gt;&lt;span style=&quot;color: #0070c1;&quot;&gt;E_WHEEL_CONTROL::wheelcontrol_forward&lt;/span&gt;&lt;/div&gt;&lt;div&gt;&lt;span style=&quot;color: #0070c1;&quot;&gt;E_WHEEL_CONTROL::wheelcontrol_backward&lt;/span&gt;&lt;/div&gt;&lt;div&gt;&lt;span style=&quot;color: #0070c1;&quot;&gt;E_WHEEL_CONTROL::wheelcontrol_turnleft&lt;/span&gt;&lt;/div&gt;&lt;div&gt;&lt;span style=&quot;color: #0070c1;&quot;&gt;E_WHEEL_CONTROL::wheelcontrol_turnright&lt;/span&gt;&lt;/div&gt;&lt;div style=&quot;&quot;&gt;&lt;span style=&quot;color: #0070c1;&quot;&gt;&lt;br&gt;&lt;/span&gt;&lt;/div&gt;&lt;div style=&quot;&quot;&gt;&lt;span style=&quot;color: #0070c1;&quot;&gt;E_WHEEL_CONTROL::wheelcontrol_dynamic&lt;/span&gt;&lt;/div&gt;&lt;/div&gt;" style="text;html=1;strokeColor=none;fillColor=none;align=left;verticalAlign=middle;whiteSpace=wrap;rounded=0;" parent="1" vertex="1">
          <mxGeometry x="-70" y="75" width="200" height="150" as="geometry" />
        </mxCell>
        <mxCell id="lpdRN_G7rFgol36uBTiA-2" value="" style="shape=curlyBracket;whiteSpace=wrap;html=1;rounded=1;flipH=1;labelPosition=right;verticalLabelPosition=middle;align=left;verticalAlign=middle;" parent="1" vertex="1">
          <mxGeometry x="240" y="90" width="20" height="100" as="geometry" />
        </mxCell>
        <mxCell id="lpdRN_G7rFgol36uBTiA-4" value="SW 제어 enum" style="text;html=1;strokeColor=none;fillColor=none;align=center;verticalAlign=middle;whiteSpace=wrap;rounded=0;" parent="1" vertex="1">
          <mxGeometry x="280" y="125" width="160" height="30" as="geometry" />
        </mxCell>
        <mxCell id="lpdRN_G7rFgol36uBTiA-5" value="" style="shape=curlyBracket;whiteSpace=wrap;html=1;rounded=1;flipH=1;labelPosition=right;verticalLabelPosition=middle;align=left;verticalAlign=middle;" parent="1" vertex="1">
          <mxGeometry x="240" y="200" width="20" height="20" as="geometry" />
        </mxCell>
        <mxCell id="lpdRN_G7rFgol36uBTiA-6" value="interface 제어 enum" style="text;html=1;strokeColor=none;fillColor=none;align=center;verticalAlign=middle;whiteSpace=wrap;rounded=0;" parent="1" vertex="1">
          <mxGeometry x="280" y="195" width="160" height="30" as="geometry" />
        </mxCell>
        <mxCell id="lpdRN_G7rFgol36uBTiA-25" value="DriveWheelControl()" style="swimlane;fontColor=#000000;startSize=23;" parent="1" vertex="1">
          <mxGeometry x="350" y="300" width="320" height="260" as="geometry">
            <mxRectangle x="360" y="390" width="160" height="30" as="alternateBounds" />
          </mxGeometry>
        </mxCell>
        <mxCell id="lpdRN_G7rFgol36uBTiA-26" value="&lt;span style=&quot;font-family: Consolas, &amp;quot;Courier New&amp;quot;, monospace; background-color: rgb(255, 255, 255); font-size: 14px;&quot;&gt;&lt;font style=&quot;font-size: 14px;&quot;&gt;interface&lt;br&gt;&lt;br&gt;&lt;/font&gt;&lt;/span&gt;&lt;div style=&quot;background-color: rgb(255, 255, 255); font-family: Consolas, &amp;quot;Courier New&amp;quot;, monospace; line-height: 19px; font-size: 14px;&quot;&gt;&lt;font style=&quot;font-size: 14px;&quot;&gt;direction : E_WHEEL_CONTROL::wheelcontrol_dynamic 고정&lt;/font&gt;&lt;/div&gt;&lt;div style=&quot;background-color: rgb(255, 255, 255); font-family: Consolas, &amp;quot;Courier New&amp;quot;, monospace; line-height: 19px; font-size: 14px;&quot;&gt;&lt;font style=&quot;font-size: 14px;&quot;&gt;Lspeed&amp;nbsp; &amp;nbsp; : ? ~ ?&amp;nbsp;&lt;/font&gt;&lt;/div&gt;&lt;div style=&quot;background-color: rgb(255, 255, 255); font-family: Consolas, &amp;quot;Courier New&amp;quot;, monospace; line-height: 19px; font-size: 14px;&quot;&gt;&lt;font style=&quot;font-size: 14px;&quot;&gt;Rspeed&amp;nbsp; &amp;nbsp; : ? ~ ?&lt;/font&gt;&lt;/div&gt;&lt;div style=&quot;background-color: rgb(255, 255, 255); font-family: Consolas, &amp;quot;Courier New&amp;quot;, monospace; line-height: 19px; font-size: 14px;&quot;&gt;&lt;font style=&quot;font-size: 14px;&quot;&gt;Bspeed&amp;nbsp; &amp;nbsp; : ? ~ ?&lt;/font&gt;&lt;/div&gt;&lt;div style=&quot;background-color: rgb(255, 255, 255); font-family: Consolas, &amp;quot;Courier New&amp;quot;, monospace; line-height: 19px; font-size: 14px;&quot;&gt;&lt;font style=&quot;font-size: 14px;&quot;&gt;flag&amp;nbsp; &amp;nbsp; &amp;nbsp; : ?? F/W 에서 보나 ?&lt;/font&gt;&lt;/div&gt;&lt;div style=&quot;background-color: rgb(255, 255, 255); font-family: Consolas, &amp;quot;Courier New&amp;quot;, monospace; line-height: 19px; font-size: 14px;&quot;&gt;&lt;span style=&quot;border-color: var(--border-color);&quot;&gt;options&amp;nbsp; &amp;nbsp;:&amp;nbsp;&lt;/span&gt;&lt;span style=&quot;border-color: var(--border-color);&quot;&gt;true 고정&lt;/span&gt;&lt;br&gt;&lt;/div&gt;&lt;span style=&quot;font-family: Consolas, &amp;quot;Courier New&amp;quot;, monospace; background-color: rgb(255, 255, 255); font-size: 14px;&quot;&gt;&lt;font style=&quot;font-size: 14px;&quot;&gt;&lt;br&gt;&lt;br&gt;&lt;/font&gt;&lt;br&gt;&lt;/span&gt;" style="text;html=1;align=left;verticalAlign=middle;resizable=0;points=[];autosize=1;strokeColor=none;fillColor=none;fontColor=#000000;" parent="lpdRN_G7rFgol36uBTiA-25" vertex="1">
          <mxGeometry x="10" y="30" width="310" height="210" as="geometry" />
        </mxCell>
        <mxCell id="lpdRN_G7rFgol36uBTiA-31" value="interface 확인해야 할 사항&lt;br style=&quot;border-color: var(--border-color);&quot;&gt;&lt;br style=&quot;border-color: var(--border-color);&quot;&gt;&lt;br style=&quot;border-color: var(--border-color);&quot;&gt;속도가 같을 때 ?&lt;br style=&quot;border-color: var(--border-color);&quot;&gt;속도가 다를 때 ?&lt;br style=&quot;border-color: var(--border-color);&quot;&gt;&lt;br style=&quot;border-color: var(--border-color);&quot;&gt;flag 쓰나 ?&lt;br&gt;&lt;br&gt;가감속 어떻게 할꺼 ?" style="rounded=0;whiteSpace=wrap;html=1;fontColor=#000000;align=left;" parent="1" vertex="1">
          <mxGeometry x="10" y="850" width="210" height="160" as="geometry" />
        </mxCell>
        <mxCell id="lpdRN_G7rFgol36uBTiA-32" value="&lt;div style=&quot;background-color: rgb(255, 255, 255); font-family: Consolas, &amp;quot;Courier New&amp;quot;, monospace; font-size: 14px; line-height: 19px;&quot;&gt;&lt;div&gt;&lt;br&gt;&lt;/div&gt;&lt;div&gt;&amp;nbsp; &amp;nbsp; &lt;span style=&quot;color: #0451a5;&quot;&gt;&quot;Dstar_Default_Speed&quot;&lt;/span&gt;: &lt;span style=&quot;color: #098658;&quot;&gt;250.0&lt;/span&gt;,&lt;/div&gt;&lt;div&gt;&amp;nbsp; &amp;nbsp; &lt;span style=&quot;color: #0451a5;&quot;&gt;&quot;Dstar_Default_Turn_Speed&quot;&lt;/span&gt;: &lt;span style=&quot;color: #098658;&quot;&gt;50.0&lt;/span&gt;,&lt;/div&gt;&lt;div&gt;&amp;nbsp; &amp;nbsp; &lt;span style=&quot;color: #0451a5;&quot;&gt;&quot;Dstar_Slow_Speed&quot;&lt;/span&gt;: &lt;span style=&quot;color: #098658;&quot;&gt;35.0&lt;/span&gt;,&lt;/div&gt;&lt;div&gt;&amp;nbsp; &amp;nbsp; &lt;span style=&quot;color: #0451a5;&quot;&gt;&quot;Dstar_Slow_Turn_Speed&quot;&lt;/span&gt;: &lt;span style=&quot;color: #098658;&quot;&gt;30.0&lt;/span&gt;,&lt;/div&gt;&lt;div&gt;&amp;nbsp; &amp;nbsp; &lt;span style=&quot;color: #0451a5;&quot;&gt;&quot;Dstar_Speed_Gain&quot;&lt;/span&gt;: &lt;span style=&quot;color: #098658;&quot;&gt;2.0&lt;/span&gt;,&lt;/div&gt;&lt;div&gt;&amp;nbsp; &amp;nbsp; &lt;span style=&quot;color: #0451a5;&quot;&gt;&quot;Dstar_Tilting_Up_Speed&quot;&lt;/span&gt;: &lt;span style=&quot;color: #098658;&quot;&gt;250.0&lt;/span&gt;,&lt;/div&gt;&lt;div&gt;&amp;nbsp; &amp;nbsp; &lt;span style=&quot;color: #0451a5;&quot;&gt;&quot;Dstar_Tilting_Down_Speed&quot;&lt;/span&gt;: &lt;span style=&quot;color: #098658;&quot;&gt;250.0&lt;/span&gt;,&lt;/div&gt;&lt;div&gt;&lt;br&gt;&lt;/div&gt;&lt;div&gt;&amp;nbsp; &amp;nbsp; &lt;span style=&quot;color: #0451a5;&quot;&gt;&quot;Clean_Speed&quot;&lt;/span&gt;: &lt;span style=&quot;color: #098658;&quot;&gt;250&lt;/span&gt;,&lt;/div&gt;&lt;div&gt;&amp;nbsp; &amp;nbsp; &lt;span style=&quot;color: #0451a5;&quot;&gt;&quot;Clean_Approach_Speed&quot;&lt;/span&gt;: &lt;span style=&quot;color: #098658;&quot;&gt;150&lt;/span&gt;,&lt;/div&gt;&lt;div&gt;&amp;nbsp; &amp;nbsp; &lt;span style=&quot;color: #0451a5;&quot;&gt;&quot;Clean_Slow_Speed&quot;&lt;/span&gt;: &lt;span style=&quot;color: #098658;&quot;&gt;100&lt;/span&gt;,&lt;/div&gt;&lt;div&gt;&amp;nbsp; &amp;nbsp; &lt;span style=&quot;color: #0451a5;&quot;&gt;&quot;Clean_Min_Speed&quot;&lt;/span&gt;: &lt;span style=&quot;color: #098658;&quot;&gt;60&lt;/span&gt;,&lt;/div&gt;&lt;div&gt;&amp;nbsp; &amp;nbsp; &lt;span style=&quot;color: #0451a5;&quot;&gt;&quot;Clean_Very_Slow_Speed&quot;&lt;/span&gt;: &lt;span style=&quot;color: #098658;&quot;&gt;35&lt;/span&gt;,&lt;/div&gt;&lt;br&gt;&lt;div&gt;&amp;nbsp; &amp;nbsp; &lt;span style=&quot;color: #0451a5;&quot;&gt;&quot;Clean_Turn_Speed&quot;&lt;/span&gt;: &lt;span style=&quot;color: #098658;&quot;&gt;100&lt;/span&gt;,&lt;/div&gt;&lt;div&gt;&amp;nbsp; &amp;nbsp; &lt;span style=&quot;color: #0451a5;&quot;&gt;&quot;Clean_Slow_Turn_Speed&quot;&lt;/span&gt;: &lt;span style=&quot;color: #098658;&quot;&gt;50&lt;/span&gt;,&lt;/div&gt;&lt;div&gt;&amp;nbsp; &amp;nbsp; &lt;span style=&quot;color: #0451a5;&quot;&gt;&quot;Clean_Min_Turn_Speed&quot;&lt;/span&gt;: &lt;span style=&quot;color: #098658;&quot;&gt;30&lt;/span&gt;,&lt;/div&gt;&lt;br&gt;&lt;div&gt;&amp;nbsp; &amp;nbsp; &lt;span style=&quot;color: #0451a5;&quot;&gt;&quot;Clean_Tilting_Up_Speed&quot;&lt;/span&gt;: &lt;span style=&quot;color: #098658;&quot;&gt;200.0&lt;/span&gt;,&lt;/div&gt;&lt;div&gt;&amp;nbsp; &amp;nbsp; &lt;span style=&quot;color: #0451a5;&quot;&gt;&quot;Clean_Tilting_Down_Speed&quot;&lt;/span&gt;: &lt;span style=&quot;color: #098658;&quot;&gt;200.0&lt;/span&gt;,&lt;/div&gt;&lt;br&gt;&lt;div&gt;&amp;nbsp; &amp;nbsp; &lt;span style=&quot;color: #0451a5;&quot;&gt;&quot;Cradle_Move_Speed&quot;&lt;/span&gt;: &lt;span style=&quot;color: #098658;&quot;&gt;80.0&lt;/span&gt;,&lt;/div&gt;&lt;div&gt;&amp;nbsp; &amp;nbsp; &lt;span style=&quot;color: #0451a5;&quot;&gt;&quot;Cradle_Trun_Speed&quot;&lt;/span&gt;: &lt;span style=&quot;color: #098658;&quot;&gt;35.0&lt;/span&gt;,&lt;/div&gt;&lt;br&gt;&lt;div&gt;&amp;nbsp; &amp;nbsp; &lt;span style=&quot;color: #0451a5;&quot;&gt;&quot;Clean_Forward_Dummy_Speed&quot;&lt;/span&gt;: &lt;span style=&quot;color: #098658;&quot;&gt;35&lt;/span&gt;,&lt;/div&gt;&lt;div&gt;&amp;nbsp; &amp;nbsp; &lt;span style=&quot;color: #0451a5;&quot;&gt;&quot;Dummy_slow_speed&quot;&lt;/span&gt;: &lt;span style=&quot;color: #098658;&quot;&gt;20&lt;/span&gt;,&lt;/div&gt;&lt;div&gt;&amp;nbsp; &amp;nbsp; &lt;span style=&quot;color: #0451a5;&quot;&gt;&quot;Clean_Turn_Dummy_Speed&quot;&lt;/span&gt;: &lt;span style=&quot;color: #098658;&quot;&gt;35&lt;/span&gt;,&lt;/div&gt;&lt;div&gt;&amp;nbsp; &amp;nbsp; &lt;span style=&quot;color: #0451a5;&quot;&gt;&quot;Dummy_slow_turn_Speed&quot;&lt;/span&gt;: &lt;span style=&quot;color: #098658;&quot;&gt;20&lt;/span&gt;,&lt;/div&gt;&lt;br&gt;&lt;div&gt;&amp;nbsp; &amp;nbsp; &lt;span style=&quot;color: #0451a5;&quot;&gt;&quot;Manual_Move_Forward_Speed&quot;&lt;/span&gt;: &lt;span style=&quot;color: #098658;&quot;&gt;250&lt;/span&gt;,&lt;/div&gt;&lt;div&gt;&amp;nbsp; &amp;nbsp; &lt;span style=&quot;color: #0451a5;&quot;&gt;&quot;Manual_Move_Turn_Speed&quot;&lt;/span&gt;: &lt;span style=&quot;color: #098658;&quot;&gt;100&lt;/span&gt;,&lt;/div&gt;&lt;div&gt;&amp;nbsp; &amp;nbsp; &lt;span style=&quot;color: #0451a5;&quot;&gt;&quot;Avoid_Back_Speed&quot;&lt;/span&gt;: &lt;span style=&quot;color: #098658;&quot;&gt;100&lt;/span&gt;,&lt;/div&gt;&lt;div&gt;&amp;nbsp; &amp;nbsp; &lt;span style=&quot;color: #0451a5;&quot;&gt;&quot;Avoid_Turn_Speed&quot;&lt;/span&gt;: &lt;span style=&quot;color: #098658;&quot;&gt;80&lt;/span&gt;,&lt;/div&gt;&lt;div&gt;&amp;nbsp; &amp;nbsp; &lt;span style=&quot;color: #0451a5;&quot;&gt;&quot;Adjuest_Heading_Speed&quot;&lt;/span&gt;: &lt;span style=&quot;color: #098658;&quot;&gt;60&lt;/span&gt;,&lt;/div&gt;&lt;/div&gt;" style="rounded=0;whiteSpace=wrap;html=1;fontColor=#000000;align=left;" parent="1" vertex="1">
          <mxGeometry x="690" y="80" width="350" height="760" as="geometry" />
        </mxCell>
        <mxCell id="lpdRN_G7rFgol36uBTiA-33" value="ClearControllerData()" style="swimlane;fontColor=#000000;startSize=23;" parent="1" vertex="1">
          <mxGeometry x="10" y="585" width="330" height="255" as="geometry">
            <mxRectangle x="360" y="390" width="160" height="30" as="alternateBounds" />
          </mxGeometry>
        </mxCell>
        <mxCell id="lpdRN_G7rFgol36uBTiA-34" value="&lt;span style=&quot;font-family: Consolas, &amp;quot;Courier New&amp;quot;, monospace; background-color: rgb(255, 255, 255); font-size: 14px;&quot;&gt;&lt;font style=&quot;font-size: 14px;&quot;&gt;interface&lt;br&gt;&lt;br&gt;&lt;/font&gt;&lt;/span&gt;&lt;div style=&quot;background-color: rgb(255, 255, 255); font-family: Consolas, &amp;quot;Courier New&amp;quot;, monospace; line-height: 19px; font-size: 14px;&quot;&gt;&lt;font style=&quot;font-size: 14px;&quot;&gt;direction :&amp;nbsp;&lt;/font&gt;&lt;span style=&quot;color: rgb(0, 112, 193);&quot;&gt;E_WHEEL_CONTROL::wheelcontrol_stop 고정&lt;/span&gt;&lt;/div&gt;&lt;div style=&quot;background-color: rgb(255, 255, 255); font-family: Consolas, &amp;quot;Courier New&amp;quot;, monospace; line-height: 19px; font-size: 14px;&quot;&gt;&lt;font style=&quot;font-size: 14px;&quot;&gt;Lspeed&amp;nbsp; &amp;nbsp; : 0 고정&lt;/font&gt;&lt;/div&gt;&lt;div style=&quot;background-color: rgb(255, 255, 255); font-family: Consolas, &amp;quot;Courier New&amp;quot;, monospace; line-height: 19px; font-size: 14px;&quot;&gt;&lt;font style=&quot;font-size: 14px;&quot;&gt;Rspeed&amp;nbsp; &amp;nbsp; : 0 고정&lt;/font&gt;&lt;/div&gt;&lt;div style=&quot;background-color: rgb(255, 255, 255); font-family: Consolas, &amp;quot;Courier New&amp;quot;, monospace; line-height: 19px; font-size: 14px;&quot;&gt;&lt;font style=&quot;font-size: 14px;&quot;&gt;Bspeed&amp;nbsp; &amp;nbsp; : 0 고정&lt;/font&gt;&lt;/div&gt;&lt;div style=&quot;background-color: rgb(255, 255, 255); font-family: Consolas, &amp;quot;Courier New&amp;quot;, monospace; line-height: 19px; font-size: 14px;&quot;&gt;&lt;font style=&quot;font-size: 14px;&quot;&gt;flag&amp;nbsp; &amp;nbsp; &amp;nbsp; : 0 고정&lt;/font&gt;&lt;/div&gt;&lt;div style=&quot;background-color: rgb(255, 255, 255); font-family: Consolas, &amp;quot;Courier New&amp;quot;, monospace; line-height: 19px; font-size: 14px;&quot;&gt;&lt;font style=&quot;font-size: 14px;&quot;&gt;options&amp;nbsp; &amp;nbsp;: true 고정&lt;/font&gt;&lt;/div&gt;&lt;span style=&quot;font-family: Consolas, &amp;quot;Courier New&amp;quot;, monospace; background-color: rgb(255, 255, 255); font-size: 14px;&quot;&gt;&lt;font style=&quot;font-size: 14px;&quot;&gt;&lt;br&gt;&lt;br&gt;&lt;/font&gt;&lt;br&gt;&lt;/span&gt;" style="text;html=1;align=left;verticalAlign=middle;resizable=0;points=[];autosize=1;strokeColor=none;fillColor=none;fontColor=#000000;" parent="lpdRN_G7rFgol36uBTiA-33" vertex="1">
          <mxGeometry x="10" y="30" width="280" height="210" as="geometry" />
        </mxCell>
        <mxCell id="lpdRN_G7rFgol36uBTiA-35" value="setForward_SpeedAdjustControl()" style="swimlane;fontColor=#000000;startSize=23;" parent="1" vertex="1">
          <mxGeometry x="10" y="300" width="330" height="260" as="geometry">
            <mxRectangle x="360" y="390" width="160" height="30" as="alternateBounds" />
          </mxGeometry>
        </mxCell>
        <mxCell id="lpdRN_G7rFgol36uBTiA-36" value="&lt;span style=&quot;font-family: Consolas, &amp;quot;Courier New&amp;quot;, monospace; background-color: rgb(255, 255, 255); font-size: 14px;&quot;&gt;&lt;font style=&quot;font-size: 14px;&quot;&gt;interface&lt;br&gt;&lt;/font&gt;&lt;/span&gt;&lt;span style=&quot;font-family: Consolas, &amp;quot;Courier New&amp;quot;, monospace; font-size: 14px; background-color: rgb(255, 255, 255);&quot;&gt;&lt;br&gt;direction :&amp;nbsp;&lt;/span&gt;&lt;span style=&quot;font-family: Consolas, &amp;quot;Courier New&amp;quot;, monospace; font-size: 14px; background-color: rgb(255, 255, 255);&quot;&gt;E_WHEEL_CONTROL::wheelcontrol_dynamic 고정&lt;/span&gt;&lt;span style=&quot;font-family: Consolas, &amp;quot;Courier New&amp;quot;, monospace; font-size: 14px; background-color: rgb(255, 255, 255);&quot;&gt;&lt;br&gt;&lt;/span&gt;&lt;span style=&quot;font-size: 14px; background-color: rgb(255, 255, 255); font-family: Consolas, &amp;quot;Courier New&amp;quot;, monospace;&quot;&gt;Lspeed&amp;nbsp; &amp;nbsp; : ? ~ ?&amp;nbsp;&lt;/span&gt;&lt;span style=&quot;font-family: Consolas, &amp;quot;Courier New&amp;quot;, monospace; font-size: 14px; background-color: rgb(255, 255, 255);&quot;&gt;&lt;br&gt;&lt;/span&gt;&lt;div style=&quot;background-color: rgb(255, 255, 255); font-family: Consolas, &amp;quot;Courier New&amp;quot;, monospace; line-height: 19px; font-size: 14px;&quot;&gt;&lt;font style=&quot;font-size: 14px;&quot;&gt;Rspeed&amp;nbsp; &amp;nbsp; : ? ~ ?&lt;/font&gt;&lt;/div&gt;&lt;div style=&quot;background-color: rgb(255, 255, 255); font-family: Consolas, &amp;quot;Courier New&amp;quot;, monospace; line-height: 19px; font-size: 14px;&quot;&gt;&lt;font style=&quot;font-size: 14px;&quot;&gt;Bspeed&amp;nbsp; &amp;nbsp; : ? ~ ?&lt;/font&gt;&lt;/div&gt;&lt;div style=&quot;background-color: rgb(255, 255, 255); font-family: Consolas, &amp;quot;Courier New&amp;quot;, monospace; line-height: 19px; font-size: 14px;&quot;&gt;&lt;font style=&quot;font-size: 14px;&quot;&gt;flag&amp;nbsp; &amp;nbsp; &amp;nbsp; : ?? F/W 에서 보나 ?&lt;/font&gt;&lt;/div&gt;&lt;div style=&quot;background-color: rgb(255, 255, 255); font-family: Consolas, &amp;quot;Courier New&amp;quot;, monospace; line-height: 19px; font-size: 14px;&quot;&gt;&lt;span style=&quot;border-color: var(--border-color);&quot;&gt;options&amp;nbsp; &amp;nbsp;:&amp;nbsp;&lt;/span&gt;&lt;span style=&quot;border-color: var(--border-color);&quot;&gt;true 고정&lt;/span&gt;&lt;/div&gt;&lt;span style=&quot;font-family: Consolas, &amp;quot;Courier New&amp;quot;, monospace; background-color: rgb(255, 255, 255); font-size: 14px;&quot;&gt;&lt;font style=&quot;font-size: 14px;&quot;&gt;&lt;br&gt;&lt;br&gt;&lt;/font&gt;&lt;br&gt;&lt;/span&gt;" style="text;html=1;align=left;verticalAlign=middle;resizable=0;points=[];autosize=1;strokeColor=none;fillColor=none;fontColor=#000000;" parent="lpdRN_G7rFgol36uBTiA-35" vertex="1">
          <mxGeometry x="10" y="30" width="310" height="210" as="geometry" />
        </mxCell>
        <mxCell id="lpdRN_G7rFgol36uBTiA-37" value="setTargetControlAdjust()" style="swimlane;fontColor=#000000;startSize=23;" parent="1" vertex="1">
          <mxGeometry x="350" y="585" width="320" height="255" as="geometry">
            <mxRectangle x="360" y="390" width="160" height="30" as="alternateBounds" />
          </mxGeometry>
        </mxCell>
        <mxCell id="lpdRN_G7rFgol36uBTiA-38" value="&lt;span style=&quot;font-family: Consolas, &amp;quot;Courier New&amp;quot;, monospace; background-color: rgb(255, 255, 255); font-size: 14px;&quot;&gt;&lt;font style=&quot;font-size: 14px;&quot;&gt;interface&lt;br&gt;&lt;/font&gt;&lt;/span&gt;&lt;br&gt;&lt;span style=&quot;font-family: Consolas, &amp;quot;Courier New&amp;quot;, monospace; font-size: 14px; background-color: rgb(255, 255, 255);&quot;&gt;direction&amp;nbsp; :&lt;/span&gt;&lt;span style=&quot;font-family: Consolas, &amp;quot;Courier New&amp;quot;, monospace; font-size: 14px; background-color: rgb(255, 255, 255);&quot;&gt;E_WHEEL_CONTROL::wheelcontrol_dynamic 고정&lt;/span&gt;&lt;div style=&quot;background-color: rgb(255, 255, 255); font-family: Consolas, &amp;quot;Courier New&amp;quot;, monospace; line-height: 19px; font-size: 14px;&quot;&gt;&lt;font style=&quot;font-size: 14px;&quot;&gt;Lspeed&amp;nbsp; &amp;nbsp; : ? ~ ?&amp;nbsp;&lt;/font&gt;&lt;/div&gt;&lt;div style=&quot;background-color: rgb(255, 255, 255); font-family: Consolas, &amp;quot;Courier New&amp;quot;, monospace; line-height: 19px; font-size: 14px;&quot;&gt;&lt;font style=&quot;font-size: 14px;&quot;&gt;Rspeed&amp;nbsp; &amp;nbsp; : ? ~ ?&lt;/font&gt;&lt;/div&gt;&lt;div style=&quot;background-color: rgb(255, 255, 255); font-family: Consolas, &amp;quot;Courier New&amp;quot;, monospace; line-height: 19px; font-size: 14px;&quot;&gt;&lt;font style=&quot;font-size: 14px;&quot;&gt;Bspeed&amp;nbsp; &amp;nbsp; : ? ~ ?&lt;/font&gt;&lt;/div&gt;&lt;div style=&quot;background-color: rgb(255, 255, 255); font-family: Consolas, &amp;quot;Courier New&amp;quot;, monospace; line-height: 19px; font-size: 14px;&quot;&gt;&lt;font style=&quot;font-size: 14px;&quot;&gt;flag&amp;nbsp; &amp;nbsp; &amp;nbsp; : ?? F/W 에서 보나 ?&lt;/font&gt;&lt;/div&gt;&lt;span style=&quot;font-family: Consolas, &amp;quot;Courier New&amp;quot;, monospace; font-size: 14px; background-color: rgb(255, 255, 255);&quot;&gt;options&amp;nbsp; &amp;nbsp;:&amp;nbsp;&lt;/span&gt;&lt;span style=&quot;font-family: Consolas, &amp;quot;Courier New&amp;quot;, monospace; font-size: 14px; background-color: rgb(255, 255, 255);&quot;&gt;true 고정&lt;/span&gt;&lt;span style=&quot;font-family: Consolas, &amp;quot;Courier New&amp;quot;, monospace; background-color: rgb(255, 255, 255); font-size: 14px;&quot;&gt;&lt;br&gt;&lt;/span&gt;" style="text;html=1;align=left;verticalAlign=middle;resizable=0;points=[];autosize=1;strokeColor=none;fillColor=none;fontColor=#000000;" parent="lpdRN_G7rFgol36uBTiA-37" vertex="1">
          <mxGeometry x="10" y="60" width="310" height="150" as="geometry" />
        </mxCell>
      </root>
    </mxGraphModel>
  </diagram>
</mxfile>
